<?xml version="1.0" encoding="UTF-8"?>
<svg width="225px" height="274px" viewBox="0 0 225 274" version="1.1" xmlns="http://www.w3.org/2000/svg" xmlns:xlink="http://www.w3.org/1999/xlink">
    <!-- Generator: Sketch 59.1 (86144) - https://sketch.com -->
    <title>Lemur</title>
    <desc>Created with Sketch.</desc>
    <g id="Page-1" stroke="none" stroke-width="1" fill="none" fill-rule="evenodd">
        <g id="Lemur">
            <g>
                <path d="M9.79,244.245 L217.632,243.458 C217.632,243.458 121.778,311.372 9.79,244.245 Z" id="Path" fill="#231F20" fill-rule="nonzero" opacity="0.1"></path>
                <path d="M152.191,186.774 C153.719,198.513 164.903,204.169 168.782,206.129 C187.79,215.739 208.71,203.891 211.18,202.441 C211.18,199.215 211.18,195.99 211.18,192.763 C205.189,195.529 199.198,198.293 193.207,201.059 C182.607,189.077 172.008,177.094 161.409,165.113 C160.372,166.02 150.632,174.793 152.191,186.774 Z" id="Path" fill="#4E535E" fill-rule="nonzero"></path>
                <path d="M47.58,158.125 C58.41,178.631 68.827,201.331 79.656,221.838 C75.509,231.976 71.361,242.114 67.214,252.252 C76.891,252.022 86.569,251.791 96.246,251.561 C94.387,249.052 92.528,246.543 90.669,244.035 C85.83,245.609 80.991,247.184 76.152,248.759 C102.379,233.501 110.624,201.74 98.272,180.323 C88.955,164.166 68.646,155.161 47.58,158.125 Z" id="Path" fill="#4E535E" fill-rule="nonzero"></path>
                <g id="Group" fill-rule="nonzero">
                    <path d="M68.778,17.183 C59.142,5.347 40.53,-3.271 23.666,2.717 C21.764,3.392 2.094,10.738 0.855,28.984 C0.086,40.303 6.582,51.432 17.445,57.325 C23.666,48.569 29.887,39.813 36.108,31.058 C39.798,32.305 44.272,34.53 45.785,38.661 C48.114,45.019 41.916,51.751 35.417,61.473 C29.892,69.737 19.978,84.566 17.445,100.182 C14.418,118.842 22.613,134.412 25.049,138.891 C33.125,153.746 44.736,161.441 49.933,164.467 L52.007,156.172 C48.712,151.441 44.068,143.485 41.638,132.67 C39.828,124.612 39.844,117.619 40.256,112.624 C47.212,108.007 62.294,96.601 70.623,76.172 C73.625,68.804 86.031,38.375 68.778,17.183 Z" id="Path" fill="#A1AEC4"></path>
                    <path d="M1.024,34.311 C9.066,38.756 17.384,41.93 25.457,46.048 C22.786,49.807 20.115,53.566 17.445,57.324 C8.297,52.361 2.247,43.686 1.024,34.311 Z M23.569,2.752 C21.981,3.324 12.846,6.843 6.637,14.534 C14.594,22.684 22.881,30.56 30.661,38.722 C32.385,36.295 34.109,33.869 35.833,31.443 C31.745,21.93 27.657,12.315 23.569,2.752 Z M68.778,17.183 C63.083,10.188 54.252,4.319 44.5,1.922 C41.487,11.529 38.991,21.294 36.559,31.216 C39.855,32.384 43.633,34.338 45.36,37.709 C53.375,31.133 61.39,24.557 69.405,17.98 C69.2,17.713 68.993,17.446 68.778,17.183 Z M77.714,46.304 C66.748,46.521 55.781,46.436 44.815,47.061 C43.424,49.995 41.176,53.179 38.643,56.791 C50.745,58.964 62.728,61.777 74.593,64.937 C76.121,59.651 77.496,53.166 77.714,46.304 Z M55.77,99.412 C59.602,95.251 63.469,90.193 66.806,84.145 C54.486,79.678 42.182,75.163 30.324,69.311 C28.286,72.6 26.143,76.317 24.178,80.313 C32.593,86.219 41.315,91.18 50.345,96.448 C52.155,97.454 53.964,98.436 55.77,99.412 Z M40.255,112.623 C42.552,111.099 45.734,108.83 49.266,105.743 C39.003,102.189 28.683,98.854 18.468,95.326 C18.056,96.931 17.709,98.551 17.445,100.18 C16.695,104.8 16.635,109.23 17.004,113.35 C24.731,113.796 32.445,114.524 40.113,114.802 C40.15,114.041 40.199,113.312 40.255,112.623 Z M41.638,132.669 C41.217,130.792 40.897,128.975 40.656,127.226 C34.581,129.529 28.44,131.645 22.181,133.06 C23.332,135.695 24.397,137.692 25.049,138.89 C27.331,143.087 29.895,146.712 32.517,149.823 C36.695,147.606 40.731,145.137 44.665,142.483 C43.5,139.533 42.445,136.263 41.638,132.669 Z" id="Shape" fill="#474D57"></path>
                </g>
                <path d="M185.806,146.966 C185.709,151.713 185.041,156.727 183.53,161.889 C181.866,167.58 177.382,182.838 163.714,190 C158.004,192.991 151.857,193.959 144.819,193.687 C112.394,192.443 55.083,164.732 46.617,160.594 C48.29,155.52 50.442,150.759 53,146.358 C55.489,142.068 58.355,138.119 61.535,134.556 C74.019,120.546 91.241,112.536 108.689,113.316 C126.984,114.127 140.349,124.385 147.464,131.422 C150.312,134.233 152.16,136.537 152.925,137.51 L153.211,136.778 L159.801,119.833 L162.603,112.625 L177.078,112.579 C177.452,113.266 177.912,114.137 178.424,115.187 C179.037,116.431 179.724,117.919 180.424,119.62 C183.124,126.146 186.05,135.813 185.806,146.966 Z" id="Path" fill="#737C8C" fill-rule="nonzero"></path>
                <path d="M178.423,115.187 C176.119,115.486 173.815,115.791 171.51,116.09 C169.679,137.654 167.848,159.219 166.017,180.783 C154.911,180.728 142.144,179.775 128.227,177.095 C106.747,172.96 88.54,165.868 73.884,158.447 C71.963,162.47 70.065,166.508 68.089,170.499 C89.98,180.055 123.021,192.851 144.818,193.687 C151.855,193.959 158.003,192.992 163.713,190 C177.381,182.838 181.866,167.58 183.529,161.889 C189.506,141.449 182.377,123.228 178.423,115.187 Z" id="Path" fill="#231F20" fill-rule="nonzero" opacity="0.2"></path>
                <path d="M185.806,146.966 C181.963,147.341 175.189,147.494 167.4,144.837 C160.733,142.564 156.001,139.145 153.211,136.777 L159.801,119.832 C166.672,119.763 173.548,119.688 180.424,119.619 C183.124,126.146 186.05,135.813 185.806,146.966 Z" id="Path" fill="#231F20" fill-rule="nonzero" opacity="0.2"></path>
                <path d="M142.479,183.129 C142.431,181.84 142.466,180.573 142.583,179.33 C137.957,178.776 133.166,178.047 128.228,177.096 C106.748,172.961 88.541,165.869 73.885,158.448 C71.964,162.471 70.066,166.509 68.09,170.5 C89.764,179.961 122.362,192.591 144.161,193.651 C143.174,190.221 142.637,186.65 142.479,183.129 Z" id="Path" fill="#231F20" fill-rule="nonzero" opacity="0.2"></path>
                <path d="M177.155,245.992 C172.777,246.914 168.399,247.836 164.021,248.758 L158.646,251.72 C158.748,252.346 158.85,252.971 158.951,253.597 C166.709,253.597 174.466,253.597 182.224,253.597 C180.534,251.062 178.844,248.527 177.155,245.992 Z" id="Path" fill="#474D57" fill-rule="nonzero"></path>
                <path d="M210.719,192.995 C210.258,201.598 209.797,210.2 209.336,218.803 C212.946,216.422 216.556,214.041 220.166,211.66 C218.092,205.055 216.019,198.449 213.945,191.844 C212.87,192.228 211.794,192.611 210.719,192.995 Z" id="Path" fill="#5C6370" fill-rule="nonzero"></path>
                <path d="M175.695,139.768 C179.637,139.3 197.027,136.795 210.258,121.334 C223.058,106.378 223.234,89.504 223.162,85.388 C220.617,81.119 214.6,72.334 203.346,65.879 C191.8,59.257 181.072,58.719 177.538,58.659 C173.233,58.586 161.141,58.536 148.966,66.493 C139.852,72.449 135.012,80.025 132.836,84.005 C132.721,88.439 132.788,105.844 145.74,121.334 C156.88,134.657 170.925,138.638 175.695,139.768 Z" id="Path" fill="#A1AEC4" fill-rule="nonzero"></path>
                <path d="M191.671,121.795 C186.557,123.381 174.997,126.791 161.255,122.409 C145.691,117.446 137.664,105.785 135.393,102.205 C136.477,105.752 138.372,110.689 141.789,115.976 C142.95,117.772 144.261,119.566 145.74,121.334 C156.881,134.657 170.925,138.638 175.695,139.768 C179.637,139.3 197.027,136.795 210.258,121.334 C216.403,114.154 219.633,106.535 221.329,100.096 C218.017,104.711 208.551,116.559 191.671,121.795 Z" id="Path" fill="#231F20" fill-rule="nonzero" opacity="0.1"></path>
                <path d="M198.92,68.337 C194.721,74.712 190.522,81.087 186.323,87.462 C182.757,92.876 181.645,101.257 185.708,107.662 C185.907,107.975 190.182,114.471 197.815,114.651 C205.149,114.825 209.704,109.047 210.901,107.354 C215.179,101.302 214.067,94.392 213.484,90.764 C211.461,78.191 202.039,70.631 198.92,68.337 Z" id="Path" fill="#474D57" fill-rule="nonzero"></path>
                <path d="M198.507,105.435 C192.11,105.358 186.968,103.952 183.638,102.757 C184.054,104.461 184.73,106.119 185.709,107.662 C185.908,107.975 190.183,114.471 197.816,114.651 C205.15,114.825 209.705,109.047 210.902,107.354 C211.849,106.014 212.531,104.632 213.014,103.253 C209.7,104.316 204.682,105.509 198.507,105.435 Z" id="Path" fill="#231F20" fill-rule="nonzero" opacity="0.2"></path>
                <path d="M154.903,68.337 C159.102,74.712 163.3,81.087 167.499,87.462 C171.065,92.876 172.177,101.257 168.114,107.662 C167.915,107.975 163.64,114.471 156.007,114.651 C148.673,114.825 144.117,109.047 142.921,107.354 C138.643,101.302 139.755,94.392 140.338,90.764 C142.361,78.191 151.784,70.631 154.903,68.337 Z" id="Path" fill="#474D57" fill-rule="nonzero"></path>
                <path d="M155.878,104.82 C150.254,104.82 144.997,103.459 140.201,101.073 C140.643,103.158 141.472,105.305 142.921,107.354 C144.118,109.047 148.673,114.825 156.007,114.651 C163.64,114.47 167.915,107.975 168.114,107.662 C169.304,105.785 170.048,103.738 170.418,101.646 C165.801,103.682 160.776,104.82 155.878,104.82 Z" id="Path" fill="#231F20" fill-rule="nonzero" opacity="0.2"></path>
                <path d="M155.417,87.385 C150.183,87.287 145.857,91.403 145.279,96.295 C144.604,101.999 149.161,107.59 155.11,107.662 C160.739,107.73 165.413,102.83 165.249,97.216 C165.096,91.992 160.793,87.485 155.417,87.385 Z" id="Path" fill="#F6921E" fill-rule="nonzero"></path>
                <path d="M155.187,102.209 C149.932,102.103 146.38,99.509 145.293,98.647 C145.898,103.443 149.986,107.599 155.11,107.662 C160.09,107.723 164.32,103.892 165.116,99.121 C163.982,99.936 160.367,102.313 155.187,102.209 Z" id="Path" fill="#BE1E2D" fill-rule="nonzero" opacity="0.3"></path>
                <path d="M156.366,94.344 C154.724,94.313 153.367,95.604 153.186,97.138 C152.974,98.927 154.403,100.681 156.269,100.703 C158.035,100.724 159.5,99.187 159.449,97.427 C159.402,95.788 158.052,94.375 156.366,94.344 Z" id="Path" fill="#BE1E2D" fill-rule="nonzero"></path>
                <path d="M198.777,87.385 C193.542,87.287 189.217,91.403 188.638,96.295 C187.963,101.999 192.52,107.59 198.47,107.662 C204.099,107.73 208.773,102.83 208.609,97.216 C208.456,91.992 204.153,87.485 198.777,87.385 Z" id="Path" fill="#F6921E" fill-rule="nonzero"></path>
                <path d="M197.201,102.132 C193.958,102.106 191.235,101.543 189.223,100.956 C190.634,104.705 194.191,107.61 198.469,107.662 C203.118,107.719 207.112,104.385 208.271,100.06 C205.876,101.006 202.024,102.171 197.201,102.132 Z" id="Path" fill="#BE1E2D" fill-rule="nonzero" opacity="0.3"></path>
                <path d="M196.869,94.344 C195.227,94.313 193.87,95.604 193.689,97.138 C193.478,98.927 194.907,100.681 196.772,100.703 C198.538,100.724 200.003,99.187 199.952,97.427 C199.904,95.788 198.555,94.375 196.869,94.344 Z" id="Path" fill="#BE1E2D" fill-rule="nonzero"></path>
                <path d="M176.463,137.463 C177.237,137.328 187.839,135.31 190.903,126.711 C191.29,125.625 192.704,121.655 190.903,117.801 C187.763,111.08 177.809,111.046 176.463,111.041873 C170.825,111.022 162.082,113.367 160.487,119.337 C159.591,122.69 161.32,125.808 162.33,127.632 C166.364,134.91 174.34,136.982 176.463,137.463 Z" id="Path" fill="#737C8C" fill-rule="nonzero"></path>
                <path d="M176.002,128.631 C170.699,128.631 165.724,127.418 161.151,125.28 C161.537,126.191 161.976,126.993 162.33,127.632 C166.364,134.91 174.34,136.983 176.463,137.463 C177.237,137.328 187.839,135.31 190.903,126.711 C191.017,126.391 191.218,125.818 191.402,125.076 C186.554,127.356 181.204,128.631 176.002,128.631 Z" id="Path" fill="#231F20" fill-rule="nonzero" opacity="0.2"></path>
                <path d="M167.399,110.581 C170.369,114.165 173.339,117.75 176.309,121.334 C179.382,117.852 182.454,114.37 185.526,110.888 C184.714,110.16 181.52,107.472 176.616,107.355 C171.592,107.234 168.217,109.896 167.399,110.581 Z" id="Path" fill="#231F20" fill-rule="nonzero"></path>
                <path d="M178.229,70.41 C190.13,70.687 199.334,67.472 204.267,65.341 C200.042,62.917 190.601,58.259 177.768,58.198 C165.917,58.141 157.021,62.034 152.729,64.265 C157.551,66.592 166.493,70.137 178.229,70.41 Z" id="Path" fill="#737C8C" fill-rule="nonzero"></path>
                <path d="M154.187,65.11 L150.924,67.995 L136.984,80.332 L132.836,84.005 C131.449,80.02 130.104,74.088 132.066,63.268 C133.831,53.539 138.297,46.765 140.822,43.452 C145.279,50.672 149.735,57.889 154.187,65.11 Z" id="Path" fill="#A1AEC4" fill-rule="nonzero"></path>
                <path d="M150.924,67.995 L136.984,80.332 C136.542,78.498 136.21,76.489 136.062,74.327 C135.329,63.649 139.491,55.695 141.284,52.668 C144.496,57.773 147.712,62.885 150.924,67.995 Z" id="Path" fill="#737C8C" fill-rule="nonzero"></path>
                <path d="M201.811,66.493 L205.074,69.378 L219.015,81.715 L223.162,85.388 C224.549,81.402 225.894,75.471 223.932,64.65 C222.167,54.921 217.702,48.147 215.176,44.834 C210.719,52.055 206.263,59.271 201.811,66.493 Z" id="Path" fill="#A1AEC4" fill-rule="nonzero"></path>
                <path d="M205.074,69.378 L219.015,81.715 C219.457,79.881 219.789,77.871 219.936,75.71 C220.669,65.032 216.507,57.078 214.715,54.051 C211.502,59.156 208.286,64.268 205.074,69.378 Z" id="Path" fill="#737C8C" fill-rule="nonzero"></path>
                <path d="M186.755,49.441 C184.4,52.104 182.044,54.767 179.689,57.429 C180.043,56.377 180.515,54.522 180.303,52.206 C180.063,49.575 179.06,47.652 178.46,46.676 C175.721,50.901 172.981,55.125 170.241,59.349 L185.91,59.964 C186.505,59.012 187.718,56.776 187.677,53.742 C187.651,51.863 187.154,50.371 186.755,49.441 Z" id="Path" fill="#737C8C" fill-rule="nonzero"></path>
                <path d="M152.652,76.324 C153.428,77.457 161.632,88.994 176.309,89.228 C187.038,89.399 197.096,83.463 202.424,73.867 C200.989,72.428 191.406,63.139 176.617,64.035 C162.265,64.904 153.979,74.701 152.652,76.324 Z" id="Path" fill="#FFFFFF" fill-rule="nonzero" opacity="0.1"></path>
                <path d="M38.441,248.922 C39.797,250.326 41.154,251.732 42.51,253.136 C48.347,253.136 54.185,253.136 60.022,253.136 C58.332,250.678 56.643,248.22 54.953,245.763 C51.778,245.711 48.603,245.66 45.429,245.609 C44.902,244.88 44.375,244.15 43.848,243.421 C41.93,245.104 40.258,247.143 38.441,248.922 Z" id="Path" fill="#474D57" fill-rule="nonzero"></path>
                <path d="M93.664,147.602 C85.569,139.241 73.658,138.192 64.631,141.381 C51.237,146.112 47.048,159.162 46.615,160.595 C49.782,165.648 56.003,177.818 55.462,193.497 C54.502,221.379 32.554,237.659 29.606,239.771 C32.551,242.821 35.496,245.871 38.441,248.921 C40.257,247.142 41.93,245.104 43.848,243.419 C43.044,242.306 42.239,241.191 41.435,240.077 C50.463,237.227 66.893,230.544 80.761,214.885 C86.107,208.848 97.823,195.251 99.656,175.252 C100.413,166.984 101.518,155.715 93.664,147.602 Z" id="Path" fill="#737C8C" fill-rule="nonzero"></path>
                <path d="M167.016,149.906 C150.189,152.045 136.917,164.853 134.526,180.783 C132.454,194.583 138.86,208.645 150.886,216.729 C151.697,222.572 152.792,228.845 154.266,235.469 C155.716,241.986 157.354,248.038 159.066,253.596 C159.837,253.603 160.608,253.616 161.378,253.615 C162.141,253.615 162.903,253.615 163.69,253.635 C164.8,219.059 165.908,184.482 167.016,149.906 Z" id="Path" fill="#737C8C" fill-rule="nonzero"></path>
                <path d="M76.72,206.85 C70.476,205.964 64.3,204.626 58.296,202.684 C57.054,202.282 55.823,201.86 54.598,201.426 C50.344,224.459 32.263,237.868 29.607,239.772 C32.552,242.822 35.497,245.872 38.442,248.922 C39.798,250.326 41.155,251.732 42.511,253.136 L60.023,253.136 C58.333,250.678 56.644,248.22 54.954,245.763 C51.779,245.711 48.604,245.66 45.43,245.609 C44.903,244.88 44.376,244.15 43.849,243.421 C43.045,242.308 42.24,241.193 41.436,240.079 C50.464,237.229 66.894,230.546 80.762,214.887 C82.247,213.21 84.223,210.945 86.343,208.125 C83.14,207.745 79.937,207.307 76.72,206.85 Z" id="Path" fill="#231F20" fill-rule="nonzero" opacity="0.1"></path>
                <path d="M147.463,131.422 C142.159,139.408 134.145,145.657 125.144,149.105 C112.72,153.866 98.659,153.552 86,149.469 C76.833,146.515 68.179,141.449 61.534,134.556 C74.018,120.546 91.24,112.536 108.688,113.316 C126.983,114.126 140.348,124.385 147.463,131.422 Z" id="Path" fill="#FFFFFF" fill-rule="nonzero" opacity="0.05"></path>
                <path d="M164.021,248.758 L163.845,248.855 C164.378,232.228 164.911,215.601 165.444,198.974 C162.145,200.178 158.81,201.287 155.417,202.253 C150.377,203.688 145.263,204.859 140.102,205.77 C142.855,210.018 146.492,213.775 150.887,216.73 C151.698,222.573 152.793,228.846 154.267,235.47 C155.646,241.669 157.197,247.444 158.819,252.777 C158.863,253.05 158.908,253.324 158.952,253.597 L159.067,253.597 C159.838,253.604 160.609,253.617 161.379,253.616 C162.142,253.616 162.904,253.616 163.691,253.636 C163.691,253.623 163.692,253.611 163.692,253.598 L182.223,253.598 C180.533,251.064 178.843,248.529 177.154,245.994 L164.021,248.758 Z" id="Path" fill="#231F20" fill-rule="nonzero" opacity="0.1"></path>
                <path d="M46.377,221.874 C39.636,232.388 31.34,238.529 29.606,239.771 C32.551,242.821 35.496,245.871 38.441,248.921 C39.797,250.325 41.154,251.731 42.51,253.135 L60.022,253.135 C58.332,250.677 56.643,248.219 54.953,245.762 C51.778,245.71 48.603,245.659 45.429,245.608 C44.902,244.879 44.375,244.149 43.848,243.42 C43.044,242.307 42.239,241.192 41.435,240.078 C47.267,238.237 56.188,234.792 65.512,228.365 C64.911,228.175 64.31,227.989 63.709,227.789 C57.989,225.883 52.104,224.03 46.377,221.874 Z" id="Path" fill="#231F20" fill-rule="nonzero" opacity="0.1"></path>
                <path d="M164.021,248.758 L163.845,248.855 C164.175,238.564 164.505,228.274 164.834,217.983 C160.688,220.381 156.452,222.587 152.11,224.553 C152.719,228.071 153.43,231.712 154.266,235.47 C155.645,241.669 157.196,247.444 158.818,252.777 C158.862,253.05 158.907,253.324 158.951,253.597 L159.066,253.597 C159.837,253.604 160.608,253.617 161.378,253.616 C162.141,253.616 162.903,253.616 163.69,253.636 C163.69,253.623 163.691,253.611 163.691,253.598 L182.222,253.598 C180.532,251.064 178.842,248.529 177.153,245.994 L164.021,248.758 Z" id="Path" fill="#231F20" fill-rule="nonzero" opacity="0.1"></path>
            </g>
        </g>
    </g>
</svg>