<?xml version="1.0" encoding="UTF-8"?>
<svg width="500px" height="481px" viewBox="0 0 500 481" version="1.1" xmlns="http://www.w3.org/2000/svg" xmlns:xlink="http://www.w3.org/1999/xlink">
    <!-- Generator: Sketch 59 (86127) - https://sketch.com -->
    <title>Farmyard</title>
    <desc>Created with Sketch.</desc>
    <defs>
        <path d="M126.629,82.896 C121.217,82.896 116.829,84.066 116.829,85.51 C127.213,85.51 276.854,85.836 281.139,85.836 C281.139,84.574 278.359,83.55 274.932,83.55 C273.721,83.55 272.594,83.68 271.639,83.901 C270.852,81.79 268.824,80.283 266.439,80.283 C265.19,80.283 264.041,80.701 263.113,81.397 C261.53,74.222 255.144,68.85 247.493,68.85 C243.086,68.85 239.097,70.632 236.202,73.513 L236.204,73.45 C236.204,57.868 223.572,45.237 207.991,45.237 C196.716,45.237 186.988,51.854 182.472,61.415 C179.533,59.914 176.214,59.05 172.688,59.05 C162.249,59.05 153.546,66.47 151.558,76.322 C149.476,74.138 146.545,72.77 143.289,72.77 C137.276,72.77 132.358,77.414 131.901,83.309 C130.377,83.049 128.572,82.896 126.629,82.896 Z M4.059,14.556 C2.031,14.556 0.387,14.994 0.387,15.535 C4.277,15.535 60.339,15.657 61.945,15.657 C61.945,15.184 60.904,14.801 59.62,14.801 C59.166,14.801 58.744,14.849 58.386,14.932 C58.091,14.141 57.331,13.577 56.438,13.577 C55.97,13.577 55.54,13.733 55.192,13.994 C54.599,11.306 52.206,9.294 49.339,9.294 C47.689,9.294 46.194,9.961 45.11,11.041 L45.11,11.017 C45.11,5.179 40.378,0.447 34.54,0.447 C30.316,0.447 26.672,2.926 24.98,6.508 C23.879,5.946 22.636,5.622 21.314,5.622 C17.404,5.622 14.143,8.402 13.398,12.093 C12.618,11.274 11.52,10.762 10.3,10.762 C8.048,10.762 6.205,12.502 6.034,14.711 C5.463,14.613 4.787,14.556 4.059,14.556 Z" id="path-1"></path>
        <path d="M165.139,40.836 C160.854,40.836 11.213,40.51 0.829,40.51 C0.829,39.066 5.217,37.896 10.629,37.896 C12.572,37.896 14.377,38.049 15.901,38.309 C16.358,32.414 21.276,27.77 27.289,27.77 C30.545,27.77 33.476,29.138 35.558,31.322 C37.546,21.47 46.249,14.05 56.688,14.05 C60.214,14.05 63.533,14.914 66.472,16.415 C70.988,6.854 80.716,0.237 91.991,0.237 C107.572,0.237 120.204,12.868 120.204,28.45 L120.202,28.513 C123.097,25.632 127.086,23.85 131.493,23.85 C139.144,23.85 145.53,29.222 147.113,36.397 C148.041,35.701 149.19,35.283 150.439,35.283 C152.824,35.283 154.852,36.79 155.639,38.901 C156.594,38.68 157.721,38.55 158.932,38.55 C162.359,38.55 165.139,39.574 165.139,40.836" id="path-3"></path>
        <path d="M61.945,15.657 C60.339,15.657 4.277,15.535 0.387,15.535 C0.387,14.994 2.031,14.556 4.059,14.556 C4.787,14.556 5.463,14.613 6.034,14.711 C6.205,12.502 8.048,10.762 10.3,10.762 C11.52,10.762 12.618,11.274 13.398,12.093 C14.143,8.402 17.404,5.622 21.314,5.622 C22.636,5.622 23.879,5.946 24.98,6.508 C26.672,2.926 30.316,0.447 34.54,0.447 C40.378,0.447 45.11,5.179 45.11,11.017 L45.11,11.041 C46.194,9.961 47.689,9.294 49.339,9.294 C52.206,9.294 54.599,11.306 55.192,13.994 C55.54,13.733 55.97,13.577 56.438,13.577 C57.331,13.577 58.091,14.141 58.386,14.932 C58.744,14.849 59.166,14.801 59.62,14.801 C60.904,14.801 61.945,15.184 61.945,15.657" id="path-5"></path>
        <path d="M114,35.786 C73.695,35.702 6.612,35.56 0.197,35.56 C0.197,34.295 4.04,33.271 8.781,33.271 C10.483,33.271 12.065,33.404 13.398,33.632 C13.8,28.468 18.107,24.401 23.374,24.401 C26.226,24.401 28.793,25.599 30.617,27.512 C32.359,18.882 39.982,12.383 49.126,12.383 C52.215,12.383 55.121,13.14 57.695,14.455 C61.652,6.079 70.172,0.284 80.049,0.284 C93.697,0.284 104.761,11.348 104.761,24.996 L104.76,25.052 C107.151,22.671 110.4,21.165 114,21 L114,35.786" id="path-7"></path>
        <polygon id="path-9" points="0.06 0.66 500 0.66 500 59.604 0.06 59.604"></polygon>
        <polygon id="path-11" points="0.06 0.107837931 500 0.107837931 500 59.373452 0.06 59.373452"></polygon>
        <polygon id="path-13" points="0.06 0.259 500 0.259 500 228 0.06 228"></polygon>
        <linearGradient x1="45.6712806%" y1="59.91754%" x2="53.9547746%" y2="40.9130941%" id="linearGradient-15">
            <stop stop-color="#79AF41" offset="0%"></stop>
            <stop stop-color="#A2BE3B" offset="100%"></stop>
        </linearGradient>
        <polygon id="path-16" points="0.06 0.325356093 500 0.325356093 500 238 0.06 238"></polygon>
    </defs>
    <g id="Page-1" stroke="none" stroke-width="1" fill="none" fill-rule="evenodd">
        <g id="Game" transform="translate(0.000000, -19.000000)">
            <g id="FarmYard">
                <g id="Group-3" stroke-width="1" transform="translate(115.000000, 70.000000)">
                    <mask id="mask-2" fill="white">
                        <use xlink:href="#path-1"></use>
                    </mask>
                    <use id="Clip-2" fill="#B7DCFF" xlink:href="#path-1"></use>
                </g>
                <g id="Group-6" stroke-width="1" transform="translate(283.000000, 97.000000)">
                    <mask id="mask-4" fill="white">
                        <use xlink:href="#path-3"></use>
                    </mask>
                    <g id="Clip-5"></g>
                    <path d="M165.139,40.836 C160.854,40.836 11.213,40.51 0.829,40.51 C0.829,39.066 5.217,37.896 10.629,37.896 C12.572,37.896 14.377,38.049 15.901,38.309 C16.358,32.414 21.276,27.77 27.289,27.77 C30.545,27.77 33.476,29.138 35.558,31.322 C37.546,21.47 46.249,14.05 56.688,14.05 C60.214,14.05 63.533,14.914 66.472,16.415 C70.988,6.854 80.716,0.237 91.991,0.237 C107.572,0.237 120.204,12.868 120.204,28.45 L120.202,28.513 C123.097,25.632 127.086,23.85 131.493,23.85 C139.144,23.85 145.53,29.222 147.113,36.397 C148.041,35.701 149.19,35.283 150.439,35.283 C152.824,35.283 154.852,36.79 155.639,38.901 C156.594,38.68 157.721,38.55 158.932,38.55 C162.359,38.55 165.139,39.574 165.139,40.836" id="Fill-4" fill="#FFFFFF" mask="url(#mask-4)"></path>
                </g>
                <g id="Group-9" stroke-width="1" transform="translate(115.000000, 70.000000)">
                    <mask id="mask-6" fill="white">
                        <use xlink:href="#path-5"></use>
                    </mask>
                    <g id="Clip-8"></g>
                    <path d="M61.945,15.657 C60.339,15.657 4.277,15.535 0.387,15.535 C0.387,14.994 2.031,14.556 4.059,14.556 C4.787,14.556 5.463,14.613 6.034,14.711 C6.205,12.502 8.048,10.762 10.3,10.762 C11.52,10.762 12.618,11.274 13.398,12.093 C14.143,8.402 17.404,5.622 21.314,5.622 C22.636,5.622 23.879,5.946 24.98,6.508 C26.672,2.926 30.316,0.447 34.54,0.447 C40.378,0.447 45.11,5.179 45.11,11.017 L45.11,11.041 C46.194,9.961 47.689,9.294 49.339,9.294 C52.206,9.294 54.599,11.306 55.192,13.994 C55.54,13.733 55.97,13.577 56.438,13.577 C57.331,13.577 58.091,14.141 58.386,14.932 C58.744,14.849 59.166,14.801 59.62,14.801 C60.904,14.801 61.945,15.184 61.945,15.657" id="Fill-7" fill="#FFFFFF" mask="url(#mask-6)"></path>
                </g>
                <g id="Group-15" stroke-width="1" transform="translate(354.000000, 19.000000)">
                    <mask id="mask-8" fill="white">
                        <use xlink:href="#path-7"></use>
                    </mask>
                    <g id="Clip-14"></g>
                    <path d="M114,35.786 C73.695,35.702 6.612,35.56 0.197,35.56 C0.197,34.295 4.04,33.271 8.781,33.271 C10.483,33.271 12.065,33.404 13.398,33.632 C13.8,28.468 18.107,24.401 23.374,24.401 C26.226,24.401 28.793,25.599 30.617,27.512 C32.359,18.882 39.982,12.383 49.126,12.383 C52.215,12.383 55.121,13.14 57.695,14.455 C61.652,6.079 70.172,0.284 80.049,0.284 C93.697,0.284 104.761,11.348 104.761,24.996 L104.76,25.052 C107.151,22.671 110.4,21.165 114,21 L114,35.786" id="Fill-13" fill="#FFFFFF" fill-rule="nonzero" mask="url(#mask-8)"></path>
                </g>
                <g id="Group-20" stroke-width="1" transform="translate(0.000000, 199.000000)">
                    <mask id="mask-10" fill="white">
                        <use xlink:href="#path-9"></use>
                    </mask>
                    <g id="Clip-17"></g>
                    <path d="M418.074,20.959 C418.074,32.169 408.986,41.257 397.776,41.257 C386.565,41.257 377.478,32.169 377.478,20.959 C377.478,9.749 386.565,0.66 397.776,0.66 C408.986,0.66 418.074,9.749 418.074,20.959" id="Fill-16" fill="#FAF4A1" mask="url(#mask-10)"></path>
                    <path d="M446.734,19.941 C429.822,25.928 412.141,31.167 388.31,27.425 C364.478,23.683 366.015,29.67 355.253,33.038 C344.49,36.405 339.108,35.283 322.196,34.16 C305.283,33.038 296.96,41.158 276.137,42.336 C255.314,43.515 149.994,51.373 130.006,40.147 C110.019,28.922 99.991,17.797 82.344,25.554 C63.892,33.664 53.609,24.498 44.674,18.445 C29.104,7.895 11.388,3.708 0,13.75 L0,59.604 L500,59.604 L500,8.731 C481.427,8.057 460.189,15.179 446.734,19.941" id="Fill-18" fill="#A18A44" mask="url(#mask-10)"></path>
                    <path d="M446.734,34.793 C429.822,38.538 412.141,41.815 388.31,39.474 C364.478,37.134 366.015,40.879 355.253,42.985 C344.49,45.092 339.108,44.39 322.196,43.688 C305.283,42.985 296.96,48.065 276.137,48.802 C255.314,49.54 149.994,54.455 130.006,47.433 C110.019,40.411 101.563,37.368 82.344,38.304 C63.125,39.24 50.056,39.708 44.674,33.856 C40.949,29.806 15.857,30.018 0,30.92 L0,59.604 L500,59.604 L500,27.78 C481.427,27.358 460.189,31.813 446.734,34.793" id="Fill-19" fill="#686837" mask="url(#mask-10)"></path>
                </g>
                <path d="M385.139,254.988 C302.142,245.503 187.131,233.053 110.062,273.366 C229.815,310.122 350.754,272.773 385.139,254.988" id="Fill-21" fill="#76B242"></path>
                <path d="M284.453,280.194 C204.174,313.41 463.642,282.417 500,277.961 L500,237.233 C454.701,231.504 362.522,247.893 284.453,280.194" id="Fill-22" fill="#7EBD44"></path>
                <path d="M284.453,280.194 C204.174,313.41 463.642,282.417 500,277.961 L500,243.273 C454.701,237.544 362.522,247.893 284.453,280.194" id="Fill-23" fill="#44833F"></path>
                <g id="Group-29" stroke-width="1" transform="translate(0.000000, 236.000000)">
                    <mask id="mask-12" fill="white">
                        <use xlink:href="#path-11"></use>
                    </mask>
                    <g id="Clip-25"></g>
                    <path d="M334.265,26.892 C317.417,31.752 300.632,37.5 284.453,44.194 C204.174,77.41 463.642,46.417 500,41.961 L500,7.484 C452.784,36.049 374.851,32.003 334.265,26.892" id="Fill-24" fill="#3D743A" mask="url(#mask-12)"></path>
                    <path d="M207.821,44.194 C133.959,13.634 47.471,-2.681 0,0.5 L0,42.897 C55.585,49.568 283.779,75.622 207.821,44.194" id="Fill-26" fill="#7EBD44" mask="url(#mask-12)"></path>
                    <path d="M207.821,44.194 C133.959,13.634 47.471,3.67 0,6.851 L0,42.897 C55.585,49.568 283.779,75.622 207.821,44.194" id="Fill-27" fill="#44833F" mask="url(#mask-12)"></path>
                    <path d="M207.821,44.194 C187.482,35.779 166.187,28.929 145.012,23.481 C72.724,37.609 22.881,31.032 0,15.496 L0,42.897 C55.585,49.568 283.779,75.622 207.821,44.194" id="Fill-28" fill="#3C7038" mask="url(#mask-12)"></path>
                </g>
                <g id="Group-32" stroke-width="1" transform="translate(0.000000, 272.000000)">
                    <mask id="mask-14" fill="white">
                        <use xlink:href="#path-13"></use>
                    </mask>
                    <g id="Clip-31"></g>
                    <polygon id="Fill-30" fill="url(#linearGradient-15)" mask="url(#mask-14)" points="0.06 228 500 228 500 0.259 0.06 0.259"></polygon>
                </g>
                <path d="M332.2,294.065 C332.2,301.022 272.751,306.663 199.417,306.663 C126.082,306.663 66.632,301.022 66.632,294.065 C66.632,287.108 126.082,281.468 199.417,281.468 C272.751,281.468 332.2,287.108 332.2,294.065" id="Fill-33" fill="#639D42"></path>
                <path d="M276.141,272.503 C274.422,267.475 280.233,263.947 283.055,266.672 C282.46,260.646 286.273,264.168 286.817,267.259 C288.755,256.783 294.712,261.573 293.206,268.778 C297.885,265.76 299.066,268.023 297.149,270.341 C303.599,265.986 311.249,274.337 305.627,279.329 C309.679,277.79 309.412,281.221 306.004,282.259 C312.033,281.827 318.333,287.591 310.032,288.715 C313.171,290.943 307.463,291.044 304.335,289.467 C303.897,292.411 288.96,290.352 288.96,290.352 L276.141,272.503" id="Fill-34" fill="#185D32"></path>
                <g id="Group-39" stroke-width="1" transform="translate(0.000000, 261.000000)">
                    <mask id="mask-17" fill="white">
                        <use xlink:href="#path-16"></use>
                    </mask>
                    <use id="bottom-colour-48FF5C" fill="#48FF5C" xlink:href="#path-16"></use>
                    <path d="M230.635,27.256 C217.205,25.95 225.127,7.349 239.887,13.794 C236.476,4.5 243.652,8.02 245.526,11.414 C244.188,-2.856 263.74,-3.233 262.879,9.59 C269.475,2.207 269.914,7.242 267.896,9.987 C276.05,5.283 287.057,9.659 284.453,18.194 C294.433,21.222 297.351,27.712 288.96,28.352 C280.569,28.991 246.857,28.833 230.635,27.256" id="Fill-35" fill="#428841" mask="url(#mask-17)"></path>
                    <path d="M75.376,81.83 C7.376,74.091 -4.639,38.834 103.651,10.259 L0,10.259 L0,149.142 C11.57,140.74 30.704,133.508 50.251,129.505 C157.196,107.601 154.619,90.85 75.376,81.83" id="Fill-37" fill="#639D42" mask="url(#mask-17)"></path>
                    <path d="M386.543,10.259 C504.812,20.64 507.98,55.829 437.443,65.08 C369.778,73.954 325.399,92.729 451.617,103.091 C537.946,110.177 478.675,132.726 386.548,143.034 C313.489,151.208 256.806,158.891 324.056,166.227 C430.356,177.823 410.401,202.305 204.87,202.305 C82.058,202.305 22.487,192.058 0,179.083 L0,238 L500,238 L500,10.259 L386.543,10.259" id="Fill-38" fill="#639D42" mask="url(#mask-17)"></path>
                </g>
                <polyline id="Fill-40" fill="#542E2A" points="260.269 180.333 272.74 201.987 294.48 201.607 286.094 191.338 272.394 178.848 256.583 150.068 225.319 130.402 216.46 136.714 250.157 157.676 260.269 180.333"></polyline>
                <path d="M220.449,135.067 C220.449,135.067 248.067,152.247 249.492,152.929 C250.917,153.61 251.866,154.065 253.207,156.632 C254.547,159.199 267.322,182.761 268.053,184.161 C268.784,185.562 269.974,186.247 270.928,186.937 C271.882,187.627 278.815,193.629 278.815,193.629 L280.564,293.685 L164.807,300.51 L163.099,202.692 L182.973,172.202 L196.224,148.892 L220.449,135.067" id="Fill-41" fill="#992529"></path>
                <polyline id="Fill-42" fill="#542E2A" points="72.462 202.147 166.191 200.51 182.568 180.371 88.839 182.008 72.462 202.147"></polyline>
                <polyline id="Fill-43" fill="#905A49" points="105.783 150.551 199.513 148.914 182.568 180.371 88.839 182.008 105.783 150.551"></polyline>
                <polyline id="Fill-44" fill="#B6745A" points="105.783 150.551 199.513 148.914 226.459 126.712 139.29 128.235 105.783 150.551"></polyline>
                <polyline id="Fill-45" fill="#5F191C" points="164.807 300.51 85.623 301.789 83.905 203.464 163.088 202.081 164.807 300.51"></polyline>
                <polyline id="Fill-46" fill="#341C19" points="72.462 202.147 166.191 200.51 166.25 203.898 72.521 205.535 72.462 202.147"></polyline>
                <polyline id="Fill-47" fill="#B4A4A2" points="223.676 176.891 204.834 177.22 205.347 206.547 224.188 206.218 223.676 176.891"></polyline>
                <polyline id="Fill-48" fill="#FFFFFE" points="215.933 191.694 223.701 178.307 223.676 176.891 221.687 176.926 214.47 189.364 215.933 191.694"></polyline>
                <polyline id="Fill-49" fill="#FFFFFE" points="213.089 191.744 205.322 205.131 205.347 206.547 207.336 206.512 214.552 194.074 213.089 191.744"></polyline>
                <polyline id="Fill-50" fill="#FFFFFE" points="214.47 189.364 206.824 177.185 204.834 177.22 204.859 178.636 213.089 191.744 214.47 189.364"></polyline>
                <polyline id="Fill-51" fill="#FFFFFE" points="224.164 204.802 215.933 191.694 214.552 194.074 222.199 206.253 224.188 206.218 224.164 204.802"></polyline>
                <polyline id="Fill-52" fill="#B4A4A2" points="243.63 176.542 224.788 176.872 225.3 206.199 244.142 205.869 243.63 176.542"></polyline>
                <polyline id="Fill-53" fill="#FFFFFE" points="235.887 191.346 243.655 177.958 243.63 176.542 241.641 176.577 234.424 189.015 235.887 191.346"></polyline>
                <polyline id="Fill-54" fill="#FFFFFE" points="233.043 191.395 225.276 204.783 225.3 206.199 227.29 206.164 234.506 193.726 233.043 191.395"></polyline>
                <polyline id="Fill-55" fill="#FFFFFE" points="234.424 189.015 226.778 176.836 224.788 176.872 224.813 178.287 233.043 191.395 234.424 189.015"></polyline>
                <polyline id="Fill-56" fill="#FFFFFE" points="244.118 204.454 235.887 191.346 234.506 193.726 242.153 205.904 244.142 205.87 244.118 204.454"></polyline>
                <polyline id="Fill-57" fill="#FFFFFE" points="209.544 235.54 191.82 235.849 191.539 219.741 209.263 219.432 209.544 235.54"></polyline>
                <polyline id="Fill-58" fill="#23959C" points="207.293 232.863 195.544 233.068 195.357 222.391 207.106 222.186 207.293 232.863"></polyline>
                <polyline id="Fill-59" fill="#FFFFFE" points="234.962 235.096 217.238 235.405 216.957 219.297 234.681 218.987 234.962 235.096"></polyline>
                <polyline id="Fill-60" fill="#23959C" points="232.711 232.419 220.962 232.624 220.776 221.947 232.524 221.741 232.711 232.419"></polyline>
                <polyline id="Fill-61" fill="#FFFFFE" points="260.381 234.651 242.657 234.961 242.376 218.853 260.1 218.543 260.381 234.651"></polyline>
                <polyline id="Fill-62" fill="#23959C" points="258.129 231.975 246.381 232.18 246.194 221.502 257.942 221.297 258.129 231.975"></polyline>
                <polyline id="Fill-63" fill="#B1B4B0" points="85.517 295.704 85.623 301.789 164.807 300.51 164.705 294.635 85.517 295.704"></polyline>
                <polyline id="Fill-64" fill="#8C908C" points="280.457 287.6 280.564 293.685 164.807 300.51 164.705 294.635 280.457 287.6"></polyline>
                <path d="M166.25,203.898 L161.836,200.557 L177.245,180.205 L193.792,149.371 C193.993,148.996 194.277,148.672 194.625,148.426 L224.63,127.06 C225.564,126.397 226.809,126.374 227.763,127.006 L258.617,147.427 C258.97,147.66 259.265,147.972 259.479,148.337 L276.864,178.045 L298.211,197.519 L294.48,201.607 L272.822,181.851 C272.617,181.662 272.44,181.444 272.3,181.204 L255.026,151.688 L226.293,132.67 L198.362,152.559 L182.019,183.012 C181.951,183.139 181.874,183.259 181.788,183.374 L166.25,203.898" id="Fill-65" fill="#9A514A"></path>
                <polyline id="Fill-66" fill="#B4A4A2" points="239.617 295.48 276.92 294.829 276.073 246.349 238.77 247.001 239.617 295.48"></polyline>
                <polyline id="Fill-67" fill="#FFFFFE" points="255.28 270.94 239.564 292.481 239.617 295.48 242.983 295.422 258.163 274.615 255.28 270.94"></polyline>
                <polyline id="Fill-68" fill="#FFFFFE" points="260.915 270.842 276.137 249.979 276.073 246.349 273.185 246.4 258.032 267.167 260.915 270.842"></polyline>
                <polyline id="Fill-69" fill="#FFFFFE" points="258.032 267.167 242.165 246.941 238.77 247.001 238.822 249.962 255.28 270.94 258.032 267.167"></polyline>
                <polyline id="Fill-70" fill="#FFFFFE" points="276.856 291.161 260.915 270.842 258.163 274.615 274.061 294.879 276.92 294.829 276.856 291.161"></polyline>
                <polyline id="Fill-71" fill="#B4A4A2" points="168.883 301.826 204.259 297.986 203.38 247.645 167.948 248.264 168.883 301.826"></polyline>
                <polyline id="Fill-72" fill="#FFFFFE" points="202.566 298.17 204.259 297.986 204.191 294.084 188.927 273.537 186.806 276.956 202.566 298.17"></polyline>
                <polyline id="Fill-73" fill="#FFFFFE" points="170.123 248.226 167.948 248.264 168.007 251.652 184.409 273.73 186.53 270.312 170.123 248.226"></polyline>
                <polyline id="Fill-74" fill="#FFFFFE" points="168.831 298.842 168.883 301.826 171.558 301.536 186.806 276.956 184.409 273.73 168.831 298.842"></polyline>
                <polyline id="Fill-75" fill="#FFFFFE" points="203.38 247.645 200.561 247.694 186.53 270.312 188.927 273.537 203.424 250.168 203.38 247.645"></polyline>
                <polyline id="Fill-76" fill="#272726" points="239.669 296.079 204.259 297.986 203.38 247.645 238.813 247.026 239.669 296.079"></polyline>
                <polyline id="Fill-77" fill="#1B1C1B" points="229.012 296.653 228.209 250.676 203.44 251.109 204.259 297.986 229.012 296.653"></polyline>
                <polyline id="Fill-78" fill="#FFFFFE" points="246.02 178.257 202.588 179.016 202.526 175.503 245.958 174.745 246.02 178.257"></polyline>
                <path d="M128.55,287.079 C126.83,282.052 132.642,278.524 135.463,281.249 C134.868,275.223 138.682,278.745 139.226,281.836 C141.164,271.36 147.121,276.15 145.615,283.355 C150.294,280.337 151.475,282.601 149.558,284.918 C156.007,280.563 163.658,288.913 158.035,293.906 C162.087,292.367 161.821,295.798 158.413,296.836 C164.441,296.404 170.742,302.168 162.441,303.292 C165.58,305.521 159.871,305.62 156.744,304.044 C156.306,306.988 141.369,304.929 141.369,304.929 L128.55,287.079" id="Fill-79" fill="#185D32"></path>
                <path d="M83.044,303.833 C69.614,302.527 77.535,283.926 92.295,290.371 C88.885,281.077 96.061,284.597 97.935,287.991 C96.596,273.721 116.148,273.344 115.288,286.166 C121.883,278.784 122.323,283.819 120.304,286.563 C128.459,281.86 139.466,286.236 136.862,294.771 C146.841,297.799 149.759,304.289 141.369,304.929 C132.978,305.568 99.265,305.41 83.044,303.833" id="Fill-80" fill="#428841"></path>
                <path d="M422.129,395.904 C422.129,398.317 392.587,400.273 356.145,400.273 C319.701,400.273 290.159,398.317 290.159,395.904 C290.159,393.49 319.701,391.534 356.145,391.534 C392.587,391.534 422.129,393.49 422.129,395.904" id="Fill-81" fill="#639D42"></path>
                <path d="M170.425,339.97 C170.425,341.659 144.795,343.028 113.18,343.028 C81.564,343.028 55.935,341.659 55.935,339.97 C55.935,338.28 81.564,336.911 113.18,336.911 C144.795,336.911 170.425,338.28 170.425,339.97" id="Fill-82" fill="#639D42"></path>
                <path d="M150.432,351.248 C150.432,352.937 124.802,354.307 93.187,354.307 C61.571,354.307 35.941,352.937 35.941,351.248 C35.941,349.559 61.571,348.188 93.187,348.188 C124.802,348.188 150.432,349.559 150.432,351.248" id="Fill-83" fill="#639D42"></path>
                <path d="M395.036,380.609 C395.036,381.333 384.275,381.92 371.002,381.92 C357.728,381.92 346.968,381.333 346.968,380.609 C346.968,379.886 357.728,379.299 371.002,379.299 C384.275,379.299 395.036,379.886 395.036,380.609" id="Fill-84" fill="#639D42"></path>
                <path d="M136.154,441.101 C136.154,441.824 125.394,442.411 112.12,442.411 C98.847,442.411 88.086,441.824 88.086,441.101 C88.086,440.376 98.847,439.789 112.12,439.789 C125.394,439.789 136.154,440.376 136.154,441.101" id="Fill-85" fill="#639D42"></path>
                <path d="M372.75,313.313 C372.75,314.278 383.901,315.062 397.658,315.062 C411.414,315.062 422.566,314.278 422.566,313.313 C422.566,312.348 411.414,311.565 397.658,311.565 C383.901,311.565 372.75,312.348 372.75,313.313" id="Fill-86" fill="#639D42"></path>
                <path d="M193.585,454.897 C193.585,459 154.456,462.326 106.188,462.326 C57.92,462.326 18.791,459 18.791,454.897 C18.791,450.794 57.92,447.469 106.188,447.469 C154.456,447.469 193.585,450.794 193.585,454.897" id="Fill-87" fill="#639D42"></path>
                <path d="M336.308,361.591 C323.06,351.707 334.836,356.543 338.2,360.329 C333.153,347.291 336.939,337.407 340.304,360.329 C342.617,355.281 352.711,352.127 341.355,361.801 C339.252,363.693 336.308,361.591 336.308,361.591" id="Fill-88" fill="#44833F"></path>
                <path d="M92.528,388.228 C79.28,378.344 91.056,383.181 94.421,386.966 C89.374,373.928 93.159,364.044 96.524,386.966 C98.837,381.919 108.931,378.765 97.575,388.438 C95.473,390.33 92.528,388.228 92.528,388.228" id="Fill-89" fill="#44833F"></path>
                <path d="M438.526,312.011 C425.278,302.127 437.055,306.964 440.419,310.749 C435.372,297.711 439.157,287.827 442.522,310.749 C444.835,305.702 454.93,302.548 443.573,312.221 C441.471,314.114 438.526,312.011 438.526,312.011" id="Fill-90" fill="#44833F"></path>
                <path d="M261.729,464.079 C248.481,454.195 260.257,459.032 263.621,462.817 C258.574,449.779 262.359,439.896 265.725,462.817 C268.037,457.771 278.132,454.615 266.775,464.289 C264.673,466.182 261.729,464.079 261.729,464.079" id="Fill-91" fill="#44833F"></path>
                <path d="M113.238,479.934 C99.99,470.051 111.766,474.887 115.131,478.672 C110.084,465.634 113.869,455.751 117.234,478.672 C119.547,473.625 129.641,470.471 118.285,480.145 C116.183,482.037 113.238,479.934 113.238,479.934" id="Fill-92" fill="#44833F"></path>
                <path d="M161.985,417.797 C153.835,411.717 161.08,414.692 163.149,417.021 C160.044,409 162.373,402.92 164.443,417.021 C165.866,413.916 172.076,411.976 165.09,417.927 C163.796,419.091 161.985,417.797 161.985,417.797" id="Fill-93" fill="#44833F"></path>
                <path d="M79.411,333.25 C71.26,327.169 78.505,330.145 80.575,332.474 C77.47,324.452 79.799,318.372 81.869,332.474 C83.291,329.368 89.502,327.428 82.516,333.379 C81.222,334.543 79.411,333.25 79.411,333.25" id="Fill-94" fill="#44833F"></path>
                <path d="M412.845,324.499 C404.694,318.419 411.939,321.395 414.01,323.723 C410.904,315.702 413.233,309.621 415.303,323.723 C416.726,320.618 422.936,318.678 415.95,324.628 C414.656,325.793 412.845,324.499 412.845,324.499" id="Fill-95" fill="#44833F"></path>
                <path d="M376.98,322.608 C373.027,319.66 376.54,321.103 377.544,322.232 C376.038,318.343 377.168,315.394 378.172,322.232 C378.862,320.727 381.873,319.785 378.485,322.672 C377.858,323.236 376.98,322.608 376.98,322.608" id="Fill-96" fill="#44833F"></path>
                <path d="M246.124,331.48 C242.17,328.531 245.684,329.975 246.688,331.104 C245.182,327.214 246.312,324.265 247.315,331.104 C248.005,329.599 251.018,328.657 247.629,331.543 C247.002,332.107 246.124,331.48 246.124,331.48" id="Fill-97" fill="#44833F"></path>
                <path d="M412.292,454.247 C408.339,451.298 411.853,452.741 412.856,453.87 C411.351,449.98 412.48,447.031 413.483,453.87 C414.174,452.364 417.186,451.423 413.798,454.31 C413.17,454.874 412.292,454.247 412.292,454.247" id="Fill-98" fill="#44833F"></path>
                <path d="M374.991,286.905 C371.038,283.957 374.552,285.399 375.556,286.529 C374.05,282.64 375.179,279.69 376.183,286.529 C376.873,285.023 379.885,284.082 376.497,286.969 C375.869,287.533 374.991,286.905 374.991,286.905" id="Fill-99" fill="#44833F"></path>
                <path d="M111.727,321.247 C107.774,318.298 111.288,319.741 112.292,320.87 C110.786,316.98 111.915,314.032 112.919,320.87 C113.609,319.365 116.621,318.424 113.233,321.31 C112.606,321.874 111.727,321.247 111.727,321.247" id="Fill-100" fill="#44833F"></path>
                <path d="M157.493,445.753 C153.54,442.805 157.054,444.247 158.058,445.377 C156.552,441.486 157.681,438.538 158.685,445.377 C159.375,443.871 162.387,442.93 158.999,445.815 C158.371,446.381 157.493,445.753 157.493,445.753" id="Fill-101" fill="#44833F"></path>
                <path d="M39.138,482.521 C35.185,479.571 38.699,481.015 39.703,482.144 C38.197,478.254 39.326,475.305 40.33,482.144 C41.02,480.638 44.032,479.697 40.644,482.583 C40.016,483.147 39.138,482.521 39.138,482.521" id="Fill-102" fill="#44833F"></path>
                <path d="M33.271,289.41 C29.318,286.461 32.832,287.904 33.836,289.033 C32.33,285.144 33.46,282.194 34.463,289.033 C35.153,287.527 38.165,286.587 34.777,289.473 C34.15,290.037 33.271,289.41 33.271,289.41" id="Fill-103" fill="#44833F"></path>
                <path d="M267.158,403.114 C263.206,400.165 266.72,401.608 267.724,402.737 C266.218,398.848 267.347,395.898 268.351,402.737 C269.041,401.231 272.053,400.291 268.664,403.177 C268.037,403.741 267.158,403.114 267.158,403.114" id="Fill-104" fill="#44833F"></path>
                <path d="M198.999,482.025 C195.046,479.076 198.56,480.52 199.564,481.648 C198.058,477.759 199.188,474.81 200.191,481.648 C200.881,480.143 203.893,479.202 200.505,482.088 C199.877,482.652 198.999,482.025 198.999,482.025" id="Fill-105" fill="#44833F"></path>
                <path d="M138.444,386.535 C134.491,383.586 138.004,385.029 139.008,386.158 C137.502,382.269 138.632,379.319 139.636,386.158 C140.326,384.652 143.337,383.711 139.949,386.598 C139.322,387.162 138.444,386.535 138.444,386.535" id="Fill-106" fill="#44833F"></path>
                <path d="M44.867,324.942 C40.914,321.993 44.428,323.437 45.432,324.566 C43.926,320.676 45.055,317.728 46.059,324.566 C46.749,323.061 49.761,322.119 46.373,325.005 C45.745,325.569 44.867,324.942 44.867,324.942" id="Fill-107" fill="#44833F"></path>
                <path d="M59.135,415.813 C55.182,412.864 58.696,414.308 59.7,415.438 C58.194,411.547 59.323,408.599 60.327,415.438 C61.017,413.932 64.029,412.99 60.641,415.876 C60.013,416.441 59.135,415.813 59.135,415.813" id="Fill-108" fill="#44833F"></path>
                <path d="M462.445,357.348 C458.493,354.399 462.007,355.843 463.01,356.972 C461.505,353.082 462.634,350.133 463.638,356.972 C464.328,355.466 467.34,354.524 463.951,357.411 C463.324,357.976 462.445,357.348 462.445,357.348" id="Fill-109" fill="#44833F"></path>
                <path d="M404.56,346.616 C396.409,340.536 403.654,343.511 405.724,345.84 C402.619,337.819 404.947,331.738 407.018,345.84 C408.44,342.735 414.65,340.794 407.664,346.745 C406.37,347.91 404.56,346.616 404.56,346.616" id="Fill-110" fill="#44833F"></path>
                <path d="M378.377,427.505 C370.227,421.424 377.472,424.399 379.541,426.729 C376.437,418.707 378.765,412.627 380.835,426.729 C382.258,423.623 388.468,421.683 381.481,427.634 C380.189,428.798 378.377,427.505 378.377,427.505" id="Fill-111" fill="#44833F"></path>
                <path d="M434.688,448.971 C426.537,442.891 433.782,445.866 435.853,448.195 C432.747,440.174 435.076,434.094 437.146,448.195 C438.569,445.09 444.778,443.149 437.793,449.101 C436.499,450.265 434.688,448.971 434.688,448.971" id="Fill-112" fill="#44833F"></path>
                <path d="M187.947,357.973 C179.797,351.893 187.042,354.868 189.111,357.197 C186.006,349.176 188.335,343.096 190.405,357.197 C191.828,354.092 198.038,352.151 191.052,358.103 C189.758,359.267 187.947,357.973 187.947,357.973" id="Fill-113" fill="#44833F"></path>
                <path d="M132.849,372.217 C124.698,366.136 131.943,369.111 134.013,371.44 C130.908,363.419 133.236,357.339 135.307,371.44 C136.73,368.335 142.939,366.395 135.953,372.346 C134.66,373.51 132.849,372.217 132.849,372.217" id="Fill-114" fill="#44833F"></path>
                <path d="M342.361,197.542 L342.976,239.669 L339.192,239.874 L340.419,190.691 C340.419,190.691 342.361,190.486 342.361,197.542" id="Fill-115" fill="#A18A44"></path>
                <path d="M343.324,190.653 C343.324,191.878 342.331,192.871 341.106,192.871 C339.882,192.871 338.889,191.878 338.889,190.653 C338.889,189.428 339.882,188.435 341.106,188.435 C342.331,188.435 343.324,189.428 343.324,190.653" id="Fill-116" fill="#A18A44"></path>
                <path d="M341.211,189.119 C341.211,189.119 350.11,173.189 350.756,172.238 C351.4,171.287 351.129,172.272 350.959,172.85 C350.789,173.427 346.51,187.183 346.204,188.1 C345.898,189.017 342.638,190.036 342.638,190.036 L341.211,189.119" id="Fill-117" fill="#A18A44"></path>
                <path d="M342.57,191.287 C342.57,191.287 351.056,207.441 351.5,208.501 C351.944,209.561 351.268,208.795 350.877,208.338 C350.485,207.88 341.299,196.783 340.697,196.026 C340.096,195.27 341.022,191.981 341.022,191.981 L342.57,191.287" id="Fill-118" fill="#A18A44"></path>
                <path d="M340.708,191.518 C340.708,191.518 322.469,190.989 321.327,190.856 C320.186,190.724 321.185,190.509 321.775,190.393 C322.366,190.277 336.543,187.714 337.497,187.562 C338.451,187.409 340.862,189.829 340.862,189.829 L340.708,191.518" id="Fill-119" fill="#A18A44"></path>
                <g id="Turbine" transform="translate(20.256922, 154.595559)" fill="#A18A44">
                    <path d="M21.5570775,25.700441 L22.1700775,67.828441 L18.3870775,68.032441 L19.6140775,18.849441 C19.6140775,18.849441 21.5570775,18.645441 21.5570775,25.700441" id="turbine-tower"></path>
                    <path d="M22.5190775,18.811441 C22.5190775,20.036441 21.5260775,21.029441 20.3010775,21.029441 C19.0760775,21.029441 18.0830775,20.036441 18.0830775,18.811441 C18.0830775,17.586441 19.0760775,16.593441 20.3010775,16.593441 C21.5260775,16.593441 22.5190775,17.586441 22.5190775,18.811441" id="turbine-center"></path>
                    <path d="M20.4060775,17.277441 C20.4060775,17.277441 29.3050775,1.34744104 29.9500775,0.396441044 C30.5960775,-0.554558956 30.3240775,0.430441044 30.1540775,1.00844104 C29.9840775,1.58544104 25.7050775,15.341441 25.3990775,16.258441 C25.0930775,17.175441 21.8320775,18.194441 21.8320775,18.194441 L20.4060775,17.277441" id="turbine-top"></path>
                    <path d="M21.7650775,19.446441 C21.7650775,19.446441 30.2510775,35.599441 30.6950775,36.659441 C31.1400775,37.719441 30.4630775,36.953441 30.0720775,36.496441 C29.6810775,36.038441 20.4930775,24.942441 19.8920775,24.185441 C19.2900775,23.428441 20.2170775,20.140441 20.2170775,20.140441 L21.7650775,19.446441" id="turbine-right"></path>
                    <path d="M19.9030775,19.676441 C19.9030775,19.676441 1.66407755,19.148441 0.522077545,19.015441 C-0.618922455,18.882441 0.380077545,18.668441 0.970077545,18.551441 C1.56107755,18.435441 15.7370775,15.872441 16.6920775,15.720441 C17.6460775,15.567441 20.0570775,17.987441 20.0570775,17.987441 L19.9030775,19.676441" id="turbine-left"></path>
                </g>
                <path d="M428.541,187.576 L429.154,229.703 L425.371,229.908 L426.598,180.725 C426.598,180.725 428.541,180.521 428.541,187.576" id="Fill-125" fill="#A18A44"></path>
                <path d="M429.504,185.687 C429.504,186.912 428.511,187.905 427.285,187.905 C426.061,187.905 425.067,186.912 425.067,185.687 C425.067,184.461 426.061,183.468 427.285,183.468 C428.511,183.468 429.504,184.461 429.504,185.687" id="Fill-126" fill="#A18A44"></path>
                <path d="M427.391,179.152 C427.391,179.152 436.289,163.223 436.935,162.271 C437.58,161.321 437.309,162.306 437.139,162.883 C436.969,163.46 432.689,177.216 432.383,178.134 C432.077,179.051 428.816,180.07 428.816,180.07 L427.391,179.152" id="Fill-127" fill="#A18A44"></path>
                <path d="M428.749,181.321 C428.749,181.321 437.235,197.475 437.68,198.535 C438.124,199.594 437.447,198.829 437.056,198.372 C436.665,197.914 427.478,186.817 426.876,186.06 C426.274,185.303 427.202,182.015 427.202,182.015 L428.749,181.321" id="Fill-128" fill="#A18A44"></path>
                <path d="M426.888,186.552 C426.888,186.552 408.648,186.023 407.507,185.89 C406.365,185.757 407.364,185.543 407.954,185.427 C408.545,185.311 422.722,182.748 423.676,182.595 C424.631,182.442 427.041,184.863 427.041,184.863 L426.888,186.552" id="Fill-129" fill="#A18A44"></path>
            </g>
        </g>
    </g>
</svg>