<?xml version="1.0" encoding="UTF-8"?>
<svg width="32px" height="69px" viewBox="0 0 32 69" version="1.1" xmlns="http://www.w3.org/2000/svg" xmlns:xlink="http://www.w3.org/1999/xlink">
    <!-- Generator: Sketch 59 (86127) - https://sketch.com -->
    <title>Turbine</title>
    <desc>Created with Sketch.</desc>
    <g id="Symbols" stroke="none" stroke-width="1" fill="none" fill-rule="evenodd">
        <g id="FarmYard" transform="translate(-20.000000, -154.000000)" fill="#A18A44">
            <g id="Turbine" transform="translate(20.256922, 154.595559)">
                <path d="M21.5570775,25.700441 L22.1700775,67.828441 L18.3870775,68.032441 L19.6140775,18.849441 C19.6140775,18.849441 21.5570775,18.645441 21.5570775,25.700441" id="turbine-tower"></path>
                <path d="M22.5190775,18.811441 C22.5190775,20.036441 21.5260775,21.029441 20.3010775,21.029441 C19.0760775,21.029441 18.0830775,20.036441 18.0830775,18.811441 C18.0830775,17.586441 19.0760775,16.593441 20.3010775,16.593441 C21.5260775,16.593441 22.5190775,17.586441 22.5190775,18.811441" id="turbine-center"></path>
                <path d="M20.4060775,17.277441 C20.4060775,17.277441 29.3050775,1.34744104 29.9500775,0.396441044 C30.5960775,-0.554558956 30.3240775,0.430441044 30.1540775,1.00844104 C29.9840775,1.58544104 25.7050775,15.341441 25.3990775,16.258441 C25.0930775,17.175441 21.8320775,18.194441 21.8320775,18.194441 L20.4060775,17.277441" id="turbine-top"></path>
                <path d="M21.7650775,19.446441 C21.7650775,19.446441 30.2510775,35.599441 30.6950775,36.659441 C31.1400775,37.719441 30.4630775,36.953441 30.0720775,36.496441 C29.6810775,36.038441 20.4930775,24.942441 19.8920775,24.185441 C19.2900775,23.428441 20.2170775,20.140441 20.2170775,20.140441 L21.7650775,19.446441" id="turbine-right"></path>
                <path d="M19.9030775,19.676441 C19.9030775,19.676441 1.66407755,19.148441 0.522077545,19.015441 C-0.618922455,18.882441 0.380077545,18.668441 0.970077545,18.551441 C1.56107755,18.435441 15.7370775,15.872441 16.6920775,15.720441 C17.6460775,15.567441 20.0570775,17.987441 20.0570775,17.987441 L19.9030775,19.676441" id="turbine-left"></path>
            </g>
        </g>
    </g>
</svg>