<?xml version="1.0" encoding="UTF-8"?>
<svg width="512px" height="512px" viewBox="0 0 512 512" version="1.1" xmlns="http://www.w3.org/2000/svg" xmlns:xlink="http://www.w3.org/1999/xlink">
    <!-- Generator: Sketch 58 (84663) - https://sketch.com -->
    <title>whitelabel</title>
    <desc>Created with Sketch.</desc>
    <defs>
        <linearGradient x1="50%" y1="0.105141548%" x2="50%" y2="99.4122376%" id="linearGradient-1">
            <stop stop-color="#333333" offset="0%"></stop>
            <stop stop-color="#000000" offset="100%"></stop>
        </linearGradient>
    </defs>
    <g id="whitelabel" stroke="none" stroke-width="1" fill="none" fill-rule="evenodd">
        <path d="M146.141456,-5.90428975e-15 L365.858544,5.90428975e-15 C416.675112,-3.43056238e-15 435.102427,5.29105984 453.680205,15.2265641 C472.257983,25.1620684 486.837932,39.7420171 496.773436,58.3197949 C506.70894,76.8975727 512,95.3248882 512,146.141456 L512,365.858544 C512,416.675112 506.70894,435.102427 496.773436,453.680205 C486.837932,472.257983 472.257983,486.837932 453.680205,496.773436 C435.102427,506.70894 416.675112,512 365.858544,512 L146.141456,512 C95.3248882,512 76.8975727,506.70894 58.3197949,496.773436 C39.7420171,486.837932 25.1620684,472.257983 15.2265641,453.680205 C5.29105984,435.102427 2.28704159e-15,416.675112 -3.93619317e-15,365.858544 L3.93619317e-15,146.141456 C-2.28704159e-15,95.3248882 5.29105984,76.8975727 15.2265641,58.3197949 C25.1620684,39.7420171 39.7420171,25.1620684 58.3197949,15.2265641 C76.8975727,5.29105984 95.3248882,3.43056238e-15 146.141456,-5.90428975e-15 Z" id="Path" fill="url(#linearGradient-1)"></path>
        <g transform="translate(96.000000, 91.000000)" fill="#FFFFFF" fill-rule="nonzero" id="Shape">
            <path d="M342.163735,177.486735 L342.163735,177.486735 L340.652745,179.223469 L173.537227,20.6142857 L48.6161103,20.6142857 L20.8138903,20.6142857 C20.8138903,9.2877551 30.1442548,0.0755102041 41.6277805,0.0755102041 L41.6277805,0 L173.461677,0 L173.461677,0.037755102 L173.499452,0.037755102 C179.278989,0.037755102 184.491906,2.37857143 188.269381,6.07857143 L305.144474,116.436735 C305.182249,116.39898 305.220024,116.323469 305.257799,116.247959 L340.841618,149.887755 C344.656869,153.62551 346.99946,158.760204 346.99946,164.461224 C347.036678,169.444898 345.147941,173.937755 342.163735,177.486735 Z M152.647787,41.1153061 L152.647787,41.1530612 C152.685562,41.1530612 152.685562,41.1530612 152.685562,41.1530612 C158.465099,41.1530612 163.678015,43.4561224 167.455491,47.1938776 L326.864959,197.723469 C329.773615,200.517347 331.851227,204.141837 332.682271,208.219388 C332.682271,208.219388 332.682271,208.257143 332.682271,208.257143 C332.795595,208.823469 332.871145,209.427551 332.946695,209.993878 C332.946695,210.107143 332.984469,210.220408 332.984469,210.295918 C333.022244,210.9 333.060019,211.466327 333.060019,212.070408 C333.060019,212.183673 333.060019,212.296939 333.060019,212.410204 L333.060019,212.410204 L333.060019,212.410204 C333.060019,217.507143 331.209056,222.15102 328.111526,225.737755 L328.111526,225.737755 L210.216514,362.75102 L210.178739,362.75102 C206.363489,367.168367 200.697276,370 194.351117,370 L194.351117,370 L194.351117,370 C193.671171,370 192.991226,369.962245 192.31128,369.92449 C191.857983,369.886735 191.366911,369.773469 190.913614,369.735714 C190.762515,369.697959 190.611416,369.697959 190.460317,369.660204 C186.720616,368.942857 183.358663,367.281633 180.601106,364.903061 L180.563331,364.940816 L7.10165402,207.35102 L7.17720353,207.27551 C2.90865617,203.57551 0.188873777,198.252041 0.0755495109,192.211224 L0,192.211224 L0,82.1928571 L0,62.0316327 L0,61.6918367 L0.0377747554,61.6918367 C0.0377747554,50.327551 9.36813935,41.1530612 20.851665,41.1530612 L20.851665,41.1153061 L152.647787,41.1153061 L152.647787,41.1153061 Z M55.5288905,123.383673 C70.8654412,123.383673 83.2933358,111.113265 83.2933358,95.9734694 C83.2933358,80.8336735 70.8654412,68.5632653 55.5288905,68.5632653 C40.1923398,68.5632653 27.7644453,80.8336735 27.7644453,95.9734694 C27.80222,111.113265 40.2301145,123.383673 55.5288905,123.383673 Z"></path>
        </g>
    </g>
</svg>