<?xml version="1.0" encoding="UTF-8"?>
<svg width="512px" height="512px" viewBox="0 0 512 512" version="1.1" xmlns="http://www.w3.org/2000/svg" xmlns:xlink="http://www.w3.org/1999/xlink">
    <!-- Generator: Sketch 59.1 (86144) - https://sketch.com -->
    <title>Icon</title>
    <desc>Created with Sketch.</desc>
    <defs>
        <linearGradient x1="50%" y1="0%" x2="50%" y2="100%" id="linearGradient-1">
            <stop stop-color="#22939C" offset="0%"></stop>
            <stop stop-color="#126970" offset="100%"></stop>
        </linearGradient>
        <path d="M146.141456,-5.90428975e-15 L365.858544,5.90428975e-15 C416.675112,-3.43056238e-15 435.102427,5.29105984 453.680205,15.2265641 C472.257983,25.1620684 486.837932,39.7420171 496.773436,58.3197949 C506.70894,76.8975727 512,95.3248882 512,146.141456 L512,365.858544 C512,416.675112 506.70894,435.102427 496.773436,453.680205 C486.837932,472.257983 472.257983,486.837932 453.680205,496.773436 C435.102427,506.70894 416.675112,512 365.858544,512 L146.141456,512 C95.3248882,512 76.8975727,506.70894 58.3197949,496.773436 C39.7420171,486.837932 25.1620684,472.257983 15.2265641,453.680205 C5.29105984,435.102427 2.28704159e-15,416.675112 -3.93619317e-15,365.858544 L3.93619317e-15,146.141456 C-2.28704159e-15,95.3248882 5.29105984,76.8975727 15.2265641,58.3197949 C25.1620684,39.7420171 39.7420171,25.1620684 58.3197949,15.2265641 C76.8975727,5.29105984 95.3248882,3.43056238e-15 146.141456,-5.90428975e-15 Z" id="path-2"></path>
    </defs>
    <g id="Icon" stroke="none" stroke-width="1" fill="none" fill-rule="evenodd">
        <g id="Path">
            <use fill="#854D4D" xlink:href="#path-2"></use>
            <use fill="url(#linearGradient-1)" xlink:href="#path-2"></use>
        </g>
        <g id="mumma" transform="translate(150.000000, 46.000000)" fill-rule="nonzero">
            <path d="M37.1234521,83.6271255 C29.7398064,81.4172804 22.3561608,79.2086402 14.9737124,77 C4.60883157,116.424167 -15.9173921,269.925263 54.4840589,267.981708 C67.4542281,262.559515 78.0298308,266.17431 91,260.752117 C80.7045615,211.051085 39.4210386,134.812633 37.1234521,83.6271255" id="Fill-162" fill="#2A2A2A"></path>
            <path d="M168.141406,83.2266732 C175.488445,81.0180882 183.431157,78.208585 190.777004,76 C200.649699,129.2216 199.162898,168.612448 183.526465,219.205182 C177.380304,239.088468 157.079746,253.711613 147.888502,263.261275 C134.982637,257.842173 117.907057,271.088866 105,265.669764 C115.245587,215.997074 165.85521,134.382993 168.141406,83.2266732" id="Fill-163" fill="#2A2A2A"></path>
            <path d="M141.459823,148 C143.797129,161.05451 146.226729,175.809479 142.701592,190.806511 C139.660696,203.739388 137.629038,226.576351 137.434861,240.569004 C178.382073,252.85036 207.84412,287.065461 207.84412,327.3538 C207.84412,331.299056 208.088638,376.581588 207.965181,380.927873 C207.601999,393.634344 204.072067,406 181.980326,406 L25.9573311,406 C3.92911694,406 0.400383526,393.611462 0.0360034457,380.914626 C-0.0898515162,376.568341 0.154666696,331.289422 0.154666696,327.3538 C0.154666696,287.154579 29.4872631,253.004509 70.2930376,240.653304 C70.0437249,226.666673 68.7743878,203.372079 65.2971949,190.806511 C61.1727481,175.908231 64.2004589,161.05451 66.5377653,148 L141.459823,148" id="Fill-164" fill="#F5A479"></path>
            <path d="M150.844129,243 C148.548756,243 146.688258,244.893108 146.688258,247.228712 C146.688258,249.563098 148.548756,251.457425 150.844129,251.457425 C153.139502,251.457425 155,249.563098 155,247.228712 C155,244.893108 153.139502,243 150.844129,243 Z M82.2177519,295.542575 C84.5131248,295.542575 86.3748207,297.436902 86.3748207,299.771288 C86.3748207,302.106892 84.5131248,304 82.2177519,304 C79.9235771,304 78.0630791,302.106892 78.0630791,299.771288 C78.0630791,297.436902 79.9235771,295.542575 82.2177519,295.542575 Z M73.6903698,283.078296 C75.9845447,283.078296 77.8450426,284.971403 77.8450426,287.307008 C77.8450426,289.642613 75.9845447,291.535721 73.6903698,291.535721 C71.3949969,291.535721 69.534499,289.642613 69.534499,287.307008 C69.534499,284.971403 71.3949969,283.078296 73.6903698,283.078296 Z M66.4939685,269.045163 C68.7881434,269.045163 70.6498394,270.938271 70.6498394,273.273875 C70.6498394,275.60948 68.7881434,277.502588 66.4939685,277.502588 C64.1985957,277.502588 62.3380977,275.60948 62.3380977,273.273875 C62.3380977,270.938271 64.1985957,269.045163 66.4939685,269.045163 Z M61.3078155,255.831198 C63.6031884,255.831198 65.4636863,257.724306 65.4636863,260.059911 C65.4636863,262.395516 63.6031884,264.288623 61.3078155,264.288623 C59.0124426,264.288623 57.1519447,262.395516 57.1519447,260.059911 C57.1519447,257.724306 59.0124426,255.831198 61.3078155,255.831198 Z M58.1558708,243 C60.4500457,243 62.3117417,244.893108 62.3117417,247.228712 C62.3117417,249.563098 60.4500457,251.457425 58.1558708,251.457425 C55.860498,251.457425 54,249.563098 54,247.228712 C54,244.893108 55.860498,243 58.1558708,243 Z M126.782248,295.542575 C124.486875,295.542575 122.626377,297.436902 122.626377,299.771288 C122.626377,302.106892 124.486875,304 126.782248,304 C129.077621,304 130.938119,302.106892 130.938119,299.771288 C130.938119,297.436902 129.077621,295.542575 126.782248,295.542575 Z M135.310828,283.078296 C133.015455,283.078296 131.154957,284.971403 131.154957,287.307008 C131.154957,289.642613 133.015455,291.535721 135.310828,291.535721 C137.606201,291.535721 139.465501,289.642613 139.465501,287.307008 C139.465501,284.971403 137.606201,283.078296 135.310828,283.078296 Z M142.506031,269.045163 C140.211857,269.045163 138.350161,270.938271 138.350161,273.273875 C138.350161,275.60948 140.211857,277.502588 142.506031,277.502588 C144.801404,277.502588 146.661902,275.60948 146.661902,273.273875 C146.661902,270.938271 144.801404,269.045163 142.506031,269.045163 Z M147.692184,255.831198 C145.396812,255.831198 143.536314,257.724306 143.536314,260.059911 C143.536314,262.395516 145.396812,264.288623 147.692184,264.288623 C149.987557,264.288623 151.848055,262.395516 151.848055,260.059911 C151.848055,257.724306 149.987557,255.831198 147.692184,255.831198 L147.692184,255.831198 Z" id="Fill-165" fill="#5F5F5F"></path>
            <path d="M183.706054,267 C199.502629,283.015557 207.08157,304.825482 208.874968,327.591129 C209.193714,331.638542 208.817232,376.670364 208.69214,381.004734 C208.328889,393.671659 204.786598,406 182.617506,406 L26.0482171,406 C3.94287421,406 0.401785414,393.648847 0.0361295069,380.991526 C-0.090166119,376.657156 0.155208239,331.514874 0.155208239,327.591129 C0.155208239,305.68275 8.95139788,285.576557 23.6161242,269.838352 C33.7979573,303.149365 65.1709936,327.448251 103.130647,327.448251 C141.089098,327.448251 174.194189,301.321966 183.706054,267" id="Fill-166" fill="#2A2A2A"></path>
            <path d="M44,302.300687 C59.022701,317.695792 80.1162934,327.273375 103.477486,327.273375 C128.465408,327.273375 150.856312,316.314024 166,299 C161.506726,328.011047 132.782593,370.164078 104.70532,377 C79.431102,371.379353 49.8241266,331.3409 44,302.300687" id="Fill-167" fill="#3F3F3F"></path>
            <path d="M38.161597,166 C26.7634999,163.259467 16.0567805,146.787758 13.3635389,126.874643 C11.5158499,113.219494 16.8734253,109.498927 25.750523,109 C26.9345376,129.823062 31.3261113,149.22062 38.161597,166 Z M171.838403,166 C183.2365,163.259467 193.94322,146.787758 196.636461,126.874643 C198.48415,113.219494 193.126575,109.498927 184.249477,109 C183.065462,129.823062 178.673889,149.22062 171.838403,166 L171.838403,166 Z" id="Fill-168" fill="#F49A6A"></path>
            <path d="M208,328.24309 C208,321.194102 207.253785,314.247623 205.606842,307.517016 C202.19198,293.558935 194.969385,280.592174 185.388367,270 C180.303804,285.457121 177.075795,303.644595 177.075795,321.805537 C177.075795,324.359815 177.026686,367.8139 176.988357,407 L181.852529,407 C203.928756,407 207.456209,394.616937 207.817938,381.893785 C207.942507,377.540176 208,332.1939 208,328.24309 Z M22.8536289,270.964789 C8.65158774,286.664313 0.154558079,306.575141 0.154558079,328.24309 C0.154558079,332.184252 -0.0897884173,377.52691 0.0359781621,381.880519 C0.400102353,394.594023 3.92635769,407 25.9391024,407 L30.8643612,407 C30.8272301,367.8139 30.7781212,324.359815 30.7781212,321.805537 C30.7781212,303.644595 27.9369943,286.42191 22.8536289,270.964789 L22.8536289,270.964789 Z" id="Fill-169" fill="#4D4D4D"></path>
            <path d="M168.54084,51.4759982 C170.564702,62.7243498 187,78.6531993 187,90.9180045 C187,162.760219 149.839684,221 104,221 C69.2030637,221 39.4073892,187.438989 27.071585,139.844905 C23.1562976,124.741248 21,108.224179 21,90.9180045 C21,71.8134894 28.5945981,53.6712973 33.3141328,37.3298518 C57.4909124,37.9349123 163.928458,25.8397165 168.54084,51.4759982" id="Fill-170" fill="#FBBB91"></path>
            <path d="M18.8093206,106.387795 C18.8801565,106.25643 23.9371178,106.017585 27.2724071,101.890339 C34.6993688,92.6995751 27.7514497,88.2558597 40.8704944,72.5410383 C54.3233081,56.4273454 87.0734958,57.9929758 103.358544,43.9906746 C113.105081,55.1853502 128.873867,52.7885384 142.313474,56.7915843 C157.1734,61.2173863 168.825302,75.8574042 172.527977,80.7083507 C180.949042,91.7346404 176.81775,98.5978578 186.147676,108 C191.708892,92.8404937 192.983938,92.1084331 191.323497,75.8335197 C186.793603,31.4250275 155.942777,-8.68663914 101.807358,1.63863982 C56.1182172,-6.86425009 34.4004174,20.7235673 21.0028316,59.6183175 C19.3700046,64.3605894 16.0034995,71.4244369 15.1378611,76.4091367 C11.9250338,94.9029222 16.2772381,83.0585877 18.8093206,106.387795" id="Fill-171" fill="#2A2A2A"></path>
            <path d="M135,52 C131.165251,28.2651428 122.606572,8.83891289 104.073382,8 C103.839451,17.2194564 104.140744,29.9662718 105.32632,39.1857282 C106.462904,48.0188432 127.226397,49.7064808 135,52" id="Fill-172" fill="#3B3B3B"></path>
            <path d="M66.5202827,52.9649403 C69.3508181,53.2732253 80.5225504,51.5439389 88.7997938,47.9541041 C95.7588841,44.9362826 101.275467,41.645099 101.316919,38.8404277 C101.427061,31.1778585 102.65639,19.0620156 101.524175,11.5812865 C100.287741,3.41534563 97.9143546,1.90643487 96.8614902,12.4688102 C95.7411193,23.7248268 91.2193686,34.7303619 77.6624069,43.0877766 C70.7755604,47.3327171 64.0557036,52.0954801 66.5202827,52.9649403" id="Fill-173" fill="#1F1F1F"></path>
            <path d="M33.5732388,256 C36.9120749,250.560172 52.2234097,245.765849 49.7260498,233.911914 C43.6580066,205.108645 13.1624409,160.580817 9.29988898,144 C7.14618085,155.50228 7.63459007,185.46529 11.0205017,208.333763 C12.9847305,221.605161 16.3176822,230.091871 19.658872,237.436903 C23.8497762,246.647398 29.4917854,254.769204 33.5732388,256" id="Fill-174" fill="#3B3B3B"></path>
            <path d="M36,80.0758049 C27.49192,94.256872 29.5668497,132.953285 30.5751688,150 C23.359424,140.082107 19.0272486,93.7555333 21.8934546,81.3524838 C27.7610532,92.4932125 30.1324014,68.9350762 36,80.0758049" id="Fill-175" fill="#2A2A2A"></path>
            <path d="M104.435889,291 C110.804463,291 116.334232,294.840975 118.730994,300.414479 C120.619833,304.80806 120.564889,311.75241 117.441651,314.900847 C116.116899,316.237302 111.320933,315.378745 110.505326,316.546809 C109.876527,317.445685 110.694576,322.184349 109.887515,322.900604 C106.662936,325.766808 101.785165,325.733604 98.5410502,322.582796 C97.5447395,321.61514 98.8817006,317.834644 98.2089466,316.61796 C97.7181171,315.733315 92.7121441,316.546809 91.5790849,315.223398 C88.6255608,311.773755 88.3984606,305.081992 89.9393235,300.924395 C92.123637,295.029525 97.8658544,291 104.435889,291 Z M95.476418,304.518712 C98.2394709,303.607978 101.153924,304.803317 101.987846,307.188065 C102.820547,309.571628 101.257706,312.243352 98.4958744,313.154087 C95.7340424,314.064821 92.8183684,312.870668 91.9844466,310.48592 C91.1517457,308.101171 92.715807,305.429447 95.476418,304.518712 Z M113.523561,304.518712 C110.760508,303.607978 107.846055,304.803317 107.012133,307.188065 C106.178211,309.571628 107.742273,312.243352 110.504105,313.154087 C113.265937,314.064821 116.181611,312.870668 117.014312,310.48592 C117.848233,308.101171 116.284172,305.429447 113.523561,304.518712 L113.523561,304.518712 Z" id="Fill-176" fill="#333333"></path>
            <path d="M72.6080371,114 C87.3596179,114 97.5949456,122.377344 99.4009691,128.744689 C91.1854733,126.959583 78.5540589,121.542187 68.5791236,123.216016 C63.6424205,124.045317 56.5019387,126.957241 61.8387859,131.902591 C62.32732,132.354724 62.8719938,132.760004 63.4608626,133.124288 C52.1146872,135.34747 42,130.002696 42,118.943008 C45.6168248,120.90147 51.4517619,117.177815 56.5413559,116.038112 C61.5115039,114.924179 64.7042954,114 72.6080371,114 Z M137.391963,114 C122.640382,114 112.406249,122.377344 110.599031,128.744689 C118.814527,126.959583 131.447136,121.542187 141.422071,123.216016 C146.358774,124.045317 153.498061,126.957241 148.162409,131.902591 C147.537706,132.481228 146.82103,132.983728 146.037464,133.41712 C157.630893,136.038554 168,129.572818 168,118.943008 C164.38437,120.90147 158.549433,117.177815 153.459839,116.038112 C148.489691,114.924179 145.296899,114 137.391963,114 L137.391963,114 Z" id="Fill-177" fill="#4D4D4D"></path>
        </g>
    </g>
</svg>