<?xml version="1.0" encoding="utf-8"?>
<!DOCTYPE svg PUBLIC "-//W3C//DTD SVG 1.1//EN" "http://www.w3.org/Graphics/SVG/1.1/DTD/svg11.dtd">
<svg version="1.1" id="wombat" xmlns="http://www.w3.org/2000/svg" xmlns:xlink="http://www.w3.org/1999/xlink" x="0px" y="0px"
	 viewBox="0 70 1200 678" enable-background="new 0 70 1200 678" xml:space="preserve">
<path fill="#ffffff"    d="M1192.8,395.2c-1.5-4.6-3.9-6.1-5.6-10.6
	c-1.5-4.1-2.8-11.9-5.7-15.1c-6.3-7.1-12.6-15-17.2-23.4c-9.7-17.7-17.4-36.2-28.6-52.8c-5.3-7.9-10.4-16.3-17.2-23.2
	c-7.6-7.7-15.3-14.8-21.6-23.8c-13.8-19.8-26.1-41.1-43.2-58.5c-6.8-7-14.8-11.7-22.5-17.2c-6.7-4.7-20.2-11-21.2-19.9
	c-3.3,0.4-5.6-3.1-5.4-6.1c-0.3,0.7-1.2,2-1.3,3.2c-2.2-0.1-3.5-3.5-4.6-5.3c-1.9,2.7-1.6,5.5-4.6,2c-1.9-2.3-1-5.3-2.2-7.9
	c-0.7,2.1-3.1,2.6-3.5,5.1c-0.7,0.1-1.1,0.1-1.8,0c-0.7-2.3-1.9-5.1-2.8-7.1c-1.5,1.3-1.3,3.5-2,5.1c-4.1-2.1-11.2-14.4-11.6-18.8
	c-1.7,0.9-1.9,3.2-2,5.1c-2.8-4.2-7.9-6.8-9.5-11.8c-1.9,1.6-1.1,4.9-1.3,7.3c-2.5-0.9-3.1-4.5-4.6-6.6c-1.7,0.7-2,2.8-3.2,3.9
	c-1.7-2.1-1.9-5.4-2.8-7.5c-1.9,1.5-2.3,3.9-2.2,6.2c-2.2-1.1-2.9-4.8-2.5-7.1c-1.7,2.7-3.1,6-4.6,8.5c0.1-4.3-1.8-9.1-4.2-12.7
	c-2.2,0.7-2.8,4.3-2.7,6.5c-1.6-2.7-4.8-4.4-4.9-7.8c-3,0.9-3,5.9-3.4,8.6c-2.6-1.3-3.6-4.5-4.4-6.6c-0.2,3.3-2.9,5.9-2.8,9.2
	c-2.3-4.6-6.9-6.1-10.2-9.6c2.1,4.3,0.6,13.2,0.6,13.2c-1.8-1.1-3-3.4-4.5-5.1c0.3,3.4-1.6,6.9-4.2,9c-1.5-1.2-2.2-3.2-2.7-5
	c0,2.3-2.5,8.7-4.5,9.9c-2.4,1.4-6.4-1.3-8.8-2c0.1,1.2-0.4,2.7-0.2,3.9c-4,1-6.2-3.5-9.9-2.5c-0.6,3.7,3.5,6-1.4,8
	c-3.3,1.3-7.6-1.2-10.7-2c0.1,2.1,2,3.8,3.2,5.3c-2.6,2-7.3-1.2-10-1.9c0.8,0.7,1.3,1.8,2.4,2.5c-3.6,0-7.6-2.9-11.2-2.4
	c0.7,1.5,2,2.9,3.8,3.2c-0.8-0.1-1.7,0.2-2.4,0.1c0.5,0.4,1,1.4,1.7,1.9c-2.7-0.1-5.5,0.1-7.8-0.6c0.7,1.2,0,1.3,1.7,1.9
	c-1.9,0-3.6-0.1-5.3-0.5c-1.8-0.5-2.4-1.7-4.5-1.4c0.3,2.1,5.1,3.8,7.1,4.6c-5.2-0.1-10.3-0.4-15.3-0.7l-5.4,6.1
	c-3.5,0-6.8,0-10.1-0.5c-3.2-0.5-5.8-1.9-9.2-1.4c0.6,0.6,1.2,1,2,1.2c-4.3,0-8.6-0.1-12.8-0.7c-3.2-0.4-8.5-3.4-11.5-2.6
	c0.1,2.5,3,3.3,5.1,3.9c-3.8,0-7.6-0.5-11.2-0.7c-2.9-0.2-6.9,1-3.4,3.9c-4.5,0.6-16.5-1.7-19.4,2c1.1,0.2,2,0.7,3.1,0.8
	c-5.8-0.1-12.2-0.1-17.9,0.8c1.6,1.7,4.3,0.8,6.5,1.9c-22.8,6.6-49.9,13.5-73.4,8.1c-7.2-1.7-13.9-5.9-20.2-9.4
	c-9.8-5.5-19.9-10.5-30-15.4c-14.2-6.9-28-13.8-42.6-19.7c-14.3-5.8-30.1-8-44.6-13.3c-15.8-5.7-31.8-10.4-47.7-15.8
	c-21.7-7.4-44.7-10-67.3-13.5c-8.4-1.3-16.8-3.1-25.2-3.7c-13.7-1-28.4,1.3-42,2.7c-20.6,2.1-40.7,4.5-61.1,7.9
	c-19.2,3.2-38,11.4-56.9,16.7c-16.1,4.4-32.2,10.4-46.8,18.4c-17.4,9.5-32.8,21.5-47.7,34.4c-11.7,10.2-20.3,23.6-31.7,33.8
	c-11.2,10-17.8,22.8-27,34.4c-8,10.2-11.5,23.2-19.7,33.5c-8.5,10.8-16.2,22-22.9,34.2c-3.1,5.7-7.1,10.9-9.5,17
	c-2.7,7-4.4,14.6-6.8,21.7c-8.7,26.9-9.3,56-7.1,83.8c5.8-3.3,1.4,16.5,3.4,19c0.3-0.3,1.4-0.8,1.7-1.2c0,3,1.7,5.7,2.2,8.7
	c0.5,3.2-0.2,6.8,0.1,10c11,0.4,3.4,12.7,4.1,19.6c0.2-0.2,0.9-0.7,1.2-1c-0.6,7,0,16.2,0.8,23.3c2.2-1.6,4.1-5.1,7-2.2
	c3.1,3.2-0.6,8.6-0.4,12.1c2.4-2,4.9-6.4,6.8-2.5c2,4-2.8,8.6-1.9,12.7c1.7-0.3,3.3-1.9,5.2-1.8c0.3,3.4,0.8,8.7-0.5,12
	c1.9-1.2,4.1-4.4,6.5-3.9c0.2,2-0.7,3.2-0.5,5.2c2.5-0.8,4.4-2.5,7.2-1.9c0.3,3-0.8,7.8,2.9,9.2c3.1,1.2,6.6-2,9.9-1.1
	c0.1,2.4-0.8,4.6-0.5,7.2c4.9-0.3,3.1,7.8,3.4,10.8c3.7-1.2,10.6-6.5,9.3,1.9c3-2.8,8.2-2.9,7.6,2.2c1.8-1.5,4.1-2.9,6.5-2.5
	c-0.3,1.4-0.8,3-0.5,4.6c1.1-1.1,2.3-2.4,3.8-2.6c0.1,1.5,0.1,3.1,0.1,4.6l3.9,2.6c2.6-1.7,6.5-3.7,8.8-3.8
	c-0.1,2.4-2.3,3.8-3.2,5.9c3.8,0.2,6.8-4.7,10.6-3.9c-0.4,1.1,0,2.2-1,3.3c1.9,0.1,3.4-1.1,5-1.3c0.1,1.7-1.4,3.2-1.8,4.5
	c4.9,1,8-5.5,12.6-4.5c0.3,2.2-1.3,3.8-1.1,5.9c1.3-0.7,2.5-2,3.8-2.5c2.8,2.9-2.4,6.5-1.8,9.8c2.9-1.4,5.9-4.5,7.9-7
	c2.4,5.1-0.9,11.1-0.4,16.6c1.2-0.9,2.5-2.4,3.8-3.2c0.3,2.7,0.1,5.4-0.5,8c2.8-0.5,4.9-2.8,6.5-5.1c0.7,4.4-2,7.9-1.9,12
	c0.2-0.6,1.5-3.9,3.3-4.1c0.3,2.9,0.5,6.4,0.1,9.3c-0.4,3.4-4.1,8.2-3.2,11.4c1-1.2,2.3-2.9,3.8-3.8c-1.2,5.4-5.5,13.4-4.5,19.3
	c1.7-1.2,3-3.7,5.2-4.7c0.4,4.2-1.1,8.9-0.5,12.9c1.1-1.2,2.3-2.5,3.8-2.7c-0.5,2.1-1.3,4.5-1.1,6.6c0.6-0.5,1.9-0.8,2.5-1.2
	c0.6,3.5-1.7,7-1.1,10.7c2.1-0.8,4.2-3.3,5.5-5.3c1.2,1.1,0.9,1.8,1.7,3.3c0.5,0.9-0.3,2,0.3,2.7c0.5,0.7,1.8,0.4,2,0.6
	c1.6,2.5,2,4.1,2.1,7.4c0.5-0.5,1.9-0.8,2.4-1.2c0.3,0.6,0.1,1,0.6,1.4c2.6,2.2,3.6,11.7,4.1,14.8c0.8,5.5-0.6,11.2,2,16.2
	c3.1,6,6.1,4.1,11.6,4.5c4.9,0.3,8.8,4.3,13.5,5.5c10.8,2.7,22.1,2.7,33.7,2.7c7.2,0,27.1,3.2,30.4-4.6c8.8-1.3,17.9,4,26.1,5.3
	c4.7,0.7,9.1,0.6,13.5,2.1c5.4,1.8,8.3,2.3,13.4-1c-2-3-7.8-6.5-7.9-10.5c4.3-0.4,8.6,0.2,12.7-0.8c4.1-1,6.9-1.6,11.3-0.5
	c7.8,2,15.2,1.8,23.5,1.1c-3.1-7-11.3-12.2-17.1-16.2c-6.3-4.4-13.5-8-20.8-10.6c2.8-2.1,15.1-1.1,14-7.3c4.4-0.6,9.7,0.7,13.9,1.4
	c5.2,0.9,9.1-0.9,14.1-1.6c-1-0.9-1.8-2-2.9-2.6c5.8-0.2,12.4,0.7,18.6,0.7c3.8,0,15.4,0.3,16.3-3.9c4.4-0.7,9.9,4.1,14,5.4
	c4.1,1.3,9.7,3.5,14.1,2.4c-2.7-3.9-5.9-7.6-9.4-11c4,2,10.9,5.4,15.5,4.3c-7.9-10.8-15.9-21.5-28.9-26.8
	c-14.9-6.1-30.6-13.7-47.1-9.5c4.1-4.2,6.1-11.9,8.2-17.4c2.2-5.8,4.1-11.3,6.8-16.8c3.1-6.6,5.4-13.1,10.1-18.7
	c3.3-4,8.3-12.6,13.9-12.9c0.2,2.1-2.1,3-2.7,5.1c4.8-3.3,10.4-5.4,15.4-8.4c3.1-1.8,7.9-5.3,11.4-5.4c-2.5,2.5-7.6,5.9-11,6.7
	c6.6,0.6,14.5-2,20.7-3.9c4.7-1.5,10.7-5.2,15.4-5.5c-2.5,7.5-21.5,6.9-22.2,14.7c6.7,0.4,13.2-2.1,19.4-4.5
	c3.5-1.3,9.2-4.7,12.8-4.1c-0.4,2.2-3.9,4.2-5.8,5.9c6.4-1.5,13.6-10,20-9.3c0.2,4.9-9,7.5-11.9,10.6c5.5,0.8,12.4-3.8,17.2-6.1
	c3.2-1.5,9.6-7.3,12.9-7.2c-2.1,8.1-13,10.9-18.1,16c9.5-1.8,18.8-7.3,26.9-12.7c5.9-4,13-12,20.2-13.4c-2.7,5.8-9.8,10.8-16.1,14.8
	c4.2-2.1,9.2-3.7,12.8-5.5c3.8-1.9,7.3-4.7,11.3-6c-0.8,4.4-8.6,8.5-12.5,10.6c5.4-0.5,11.7-2.4,17.3-3.1c-0.6,4.4-9.7,7.3-13.2,9.2
	c4.5,0.4,9.7-2.2,13.9-1.1c-0.5,3.4-7,6.9-10,8.2c2.2,3.5,9.4-1.3,12-0.3c-2.5,1.4-8.4,3.2-9.3,5.6c3.4,1.4,7.5,1.1,11.3,1.4
	c-1,5.6-12.1,6.8-15.4,10.5c4.5,0.5,9-1.1,13.4-0.4c-1.9,2.4-6,3.6-8.7,5.3c1,2.5,6.3,1.3,8.6,1.5c-0.2,4-11,5-7.5,8.2
	c2.6,2.3,12.1,0.3,15.6,0.6c-0.9,2-3.2,3-5.3,4.1c1.6,2.3,7.2,1.1,10,1.3c-1,3.4-8,3.1-8,6.5c2.6,0.8,5.3,0.8,8,0.9
	c-1.5,2.4-4.8,2.6-6.5,4.6c3.2,2.6,7.4,1.8,11.2,2.1c-0.6,3.9-6.2,4.8-9.3,6.8c1.4,1.7,5,3.6,7.4,3.9c2.5,0.3,5.4-1.8,7.3,0.1
	c-1.8,3.2-5.7,2.6-8.6,4c1.6,2.7,4.5,1.7,6.7,3.2c2,1.4,2.5,3.6-1.3,3.5c0.2,3,6.1,3,8.6,3.4c0,1.9-1.9,2.5-3.7,2.6
	c4.4,3.4,8.7,5.9,14.5,5.5c0.1,3.4-5,3-7.3,4.1c3.2,4.6,11.6-0.8,14.8,3.3c1.8-0.7,3.4-1.1,5.3-1.3c-0.2,1.5-1.5,2.7-2.6,3.1
	c2.9,0.3,7-1.3,9.3,0.3c1.4,4-4.5,6.2-6.6,8.5c3.5,0.9,7.5-1,10.5-1.8c-1,1.4-2.4,2.3-3.1,3.8c3.2,0.3,6.1,0.1,8.6-1.2
	c0.1,1.9-1.4,3.4-3.2,4.1c3.1,2.3,6.6-3.1,9.6-1c3.1,2.2-0.6,7-2.2,8.8c3.3,0.9,6.6-1.7,9.3-3.2c-0.1,1.2,0.3,2.7,0.2,3.9
	c1-0.8,2.6-1.8,3.8-1.9c1.3,2.3,0.2,4.9,1.5,7.1c0.4-1.1,1.6-1.8,2.1-2.6c4.4,5.3,8.5,13.6,11.9,19.8c3.7,6.6,9.5,10.7,15,16
	c6.8,6.4,11.9,11.4,20.7,14.3c8.7,2.9,16.1,4.3,25.1,2.8c5.5,2.7,12.2,7.9,18.2,9.2c7.1,1.5,17.3-0.4,24.3-1.5
	c7.2-1.2,14.4-3.3,21.7-2c3.1,0.6,6.2,1.9,9.3,2.2c3.5,0.4,7-0.3,10,1.2c-0.7-2.8-5-4.9-4.5-7.9c1.5-0.1,3-0.1,4.5-0.2
	c-0.1-0.7,0.3-1.8,0.2-2.5c3.7-1,7.7,1.6,11.3,1.9c4,0.4,7.6,0.7,11.5,1.3c8.6,1.5,16.7-1.6,25.4-1.3c-2.1-3.4-7.3-5.4-10.3-8.2
	c6.7-0.2,15.2,0.4,21.2,3.3c-3.7-7.3-9.1-9.9-14.9-15.2c-2.9-2.7-4.9-5.3-8.6-7.1c-2-1-7.5-2.8-6.7-4.5l-2.7-4c5.5,0,10-0.6,15,0.5
	c4.2,1,8.4,2.4,12.7,2.8c1.5,0.2,2.9,0.1,4.4,0c3.2,3,7,6.3,9.7,5.9c0.5-1.7-0.5-4.1-2.4-6.6c1-0.1,2.1-0.1,3.1,0
	c3.5,0.3,11.9,0.8,12.9-3.3c5.2,0.7,10.8,1.9,15.9,2.7c2.8,0.5,12.1,2.3,14.2,0.4c-1-1.5-2.1-3.2-1.8-5.1c2.2-0.1,4.2,1,6.5,0.5
	c-0.8-4.5-11.5-7.5-10.6-11.9c3.3-0.3,6.9,1.3,9.9,0.4c-3.1-5.1-9.7-10.6-16-10.1c-3-6.8-11.5-15-17.6-19.4
	c-8.8-6.3-18.6-8.8-28.3-12.3c-9.4-3.3-22.2-5.5-26.2-16c-2-5.1-1.2-10-0.8-15.5c0.4-5.1,0.1-10.3,0-15.4c0,0.4,0.1,0.8,0.1,1.2
	c4.1-2.6,4.6-10.4,8.5-12c2.5,2.8-1.2,5.1-1.1,7.9c2.8-0.8,5.4-2.5,7.5-4.5c1.6-1.5,2.1-3.7,4.5-4.1c-0.6,2.7-2.3,4.6-3.2,7.1
	c4.5-2,8.5-5.7,12.7-7.8c-0.3,0.8-0.3,1.9-0.5,2.6c4.8-0.1,10-7.9,13.3-11.2c0.6,2.4-1.5,4-1.1,6.3c5.4-4.9,9.7-10.7,14-16.5
	c0.3,3.2-0.4,5.2-1.9,7.9c5.5-1.1,8.8-9.6,11.4-13.8c1.3,2.1,0.2,4.6,1.3,6.9c3.2-7.2,5.5-16.1,10-22.5c0.2,2-0.5,3.6-0.6,5.6
	c0.8-2.9,4.6-14.9,7.3-15.9c0.7,2.9-0.2,8.2-1.8,10.5c2.5-2.7,5.8-4.8,7.9-7.9c1.5-2.1,1.8-5.9,4.8-6c0.2,2.3,0,4.8,0.2,7.1
	c1.8-1.7,2.2-3.8,3.8-5.6c0.3,2.9,0,5.8-0.4,8.5c2.4-2.8,2.3-8.9,5.8-11.3c0.2,2-0.1,4,0.6,5.8c1.9-3-0.3-9.5,3.4-11.2
	c1.5,2.3,0.3,5.1,0.7,6.6c1-2.9,3-5.6,3.6-8.7c0.5-2.5-0.2-5.4,0.1-8c3.6,0.3,2.6,6.4,2.6,9.1c1.7-3.9,1.6-14.7,4.6-16.6
	c-0.2,1.5,0.5,2.5,0.8,3.7c1.8-2.3,2.3-7.6,2.2-10.4c2.3,1.4,1,5.1,0.7,7.3c2.3-3.2,5-14.3,3.9-16.8l4.7,1.4c3.5,0.1,6.6,4.1,10,3.3
	c0.1-0.4,0.2-0.7,0.2-1.1c2.8-0.4,7,3.5,9.1,5.4c-0.5-0.7-0.7-1.4-1-2c4.7,0.9,8.5,5.7,11.2,9.3c1.6-3.7,0.7-7.2-1-10.7
	c2.3,1,4.6,3.1,7.2,3.2c-0.3-2.3-2.5-4.4-4.5-5.7c2.8,1.6,7.3,3.9,10.5,3.7c0.5-4.3-4.9-4.8-6.6-7.9c5.2-1.2,10.7,3.7,16,2.4
	c-1-1.6-3.3-1.8-5.1-2.6c3.3-0.1,6,0.9,9.2,0.2c3.1-0.7,5.6-1.1,8.8-1.5c3.5-0.5,4.7-0.5,8.1,0c3.7,0.5,8.5,0.5,11.9-0.7
	c-0.8-0.4-1.3-1.6-1.7-1.9c3.6-2.5,9.2,0.2,13.3-0.3c-0.2-0.5-0.1-1.2-0.5-1.8c3.3-0.4,7.5-1.4,10.7-0.7c3.5,0.8,6.7,3.3,10.1,4.4
	c2.3,0.8,2.6,0.3,4.2,2c1.4,1.6,1,3.2,3.2,4.3c2.5,1.2,7.7-2,6.9,3.2c1.8-0.2,3.6-1.6,5.1-2.5c1.1,3.6,3.9,2.1,6.7,1.1
	c2.3-0.7,4.7-2.7,6.9-3.3c2.3-0.6,5.7,0,8.1,0c5.6,0,11.1,1.1,16.8,0.7c5-0.4,13.5-12.1,13.5-12.1s5.7,2.5,11.5,2.5
	c10.8,0,19.1-7.8,26.3-15.4c4.8-5.1,6.5-8.5,12.8-10.1c5.1-1.3,9.5-3.8,14-7c7.7-5.5,12.7-11.9,15.9-20.9
	C1198,414.5,1196,404.8,1192.8,395.2z"/>
</svg>
